<?xml version="1.0" encoding="UTF-8" standalone="no"?>
<svg
   fill="none"
   viewBox="0 0 23.999819 23.999907"
   stroke-width="1.5"
   stroke="currentColor"
   class="size-6"
   version="1.1"
   id="svg1"
   xml:space="preserve"
   xmlns="http://www.w3.org/2000/svg"
   xmlns:svg="http://www.w3.org/2000/svg"><defs
     id="defs1" /><path
     stroke-linecap="round"
     stroke-linejoin="round"
     d="M 0.75931734,14.128718 9.824616,5.0624062 c 0.445473,-0.4444583 1.166323,-0.4444583 1.610781,0 l 9.06631,9.0663118 M 3.037284,11.850751 v 10.250855 c 0,0.628717 0.5102682,1.138984 1.1389845,1.138984 h 4.1762797 v -4.935599 c 0,-0.628717 0.510261,-1.138981 1.1389834,-1.138981 h 2.2779674 c 0.628717,0 1.138979,0.510264 1.138979,1.138981 v 4.935599 h 4.176276 c 0.628719,0 1.138984,-0.510267 1.138984,-1.138984 V 11.850751 M 6.8338972,23.24059 h 8.3525548"
     id="path1-8-1"
     style="stroke-width:1.51863" /><g
     style="fill:none;stroke:currentColor;stroke-width:1.5"
     id="g1"
     transform="matrix(0.47296826,0,0,0.47296826,13.640758,-1.1352071)"><path
       stroke-linecap="round"
       stroke-linejoin="round"
       d="m 11.48,3.499 a 0.562,0.562 0 0 1 1.04,0 l 2.125,5.111 a 0.563,0.563 0 0 0 0.475,0.345 l 5.518,0.442 c 0.499,0.04 0.701,0.663 0.321,0.988 l -4.204,3.602 a 0.563,0.563 0 0 0 -0.182,0.557 l 1.285,5.385 a 0.562,0.562 0 0 1 -0.84,0.61 l -4.725,-2.885 a 0.562,0.562 0 0 0 -0.586,0 L 6.982,20.54 A 0.562,0.562 0 0 1 6.142,19.93 L 7.427,14.544 A 0.562,0.562 0 0 0 7.245,13.987 L 3.041,10.385 A 0.562,0.562 0 0 1 3.362,9.397 L 8.88,8.955 A 0.563,0.563 0 0 0 9.355,8.61 L 11.48,3.5 Z"
       id="path1" /></g></svg>
