<?xml version="1.0" encoding="UTF-8" standalone="no"?>
<svg
   fill="none"
   viewBox="0 0 23.999819 23.999907"
   stroke-width="1.5"
   stroke="currentColor"
   class="size-6"
   version="1.1"
   id="svg1"
   xmlns="http://www.w3.org/2000/svg"
   xmlns:svg="http://www.w3.org/2000/svg">
  <defs
     id="defs1" />
  <path
     stroke-linecap="round"
     stroke-linejoin="round"
     d="m 12.556551,5.6676938 5.0599,-5.06046771 c 0.248645,-0.24807835 0.650997,-0.24807835 0.899077,0 L 23.575993,5.6676938 M 13.828024,4.3962187 v 5.7216353 c 0,0.350926 0.284812,0.635736 0.635736,0.635736 H 16.7948 V 7.9987301 c 0,-0.3509268 0.284807,-0.6357371 0.635736,-0.6357371 h 1.271475 c 0.350925,0 0.635733,0.2848103 0.635733,0.6357371 V 10.75359 h 2.331038 c 0.350928,0 0.635737,-0.28481 0.635737,-0.635736 V 4.3962187 m -6.35737,6.3573713 h 4.662073"
     id="path1-8-6"
     style="stroke-width:0.84765" />
  <path
     stroke-linecap="round"
     stroke-linejoin="round"
     d="m 0.423825,5.6676941 5.0599,-5.06046815 c 0.248645,-0.2480784 0.650997,-0.2480784 0.899077,0 L 11.443267,5.6676941 M 1.695298,4.3962181 v 5.7216359 c 0,0.350926 0.284812,0.635736 0.635736,0.635736 h 2.33104 V 7.9987301 c 0,-0.350927 0.284807,-0.635737 0.635736,-0.635737 h 1.271475 c 0.350925,0 0.635733,0.28481 0.635733,0.635737 V 10.75359 h 2.331038 c 0.350928,0 0.635737,-0.28481 0.635737,-0.635736 V 4.3962181 M 3.814423,10.75359 h 4.662073"
     id="path1-8-6-9"
     style="stroke-width:0.84765" />
  <path
     stroke-linecap="round"
     stroke-linejoin="round"
     d="M 5.1508337,17.150832 11.440743,10.86022 c 0.309088,-0.308385 0.809247,-0.308385 1.117631,0 l 6.290611,6.290612 M 6.7313888,15.570277 v 7.112501 c 0,0.436232 0.3540469,0.790278 0.7902784,0.790278 h 2.8976888 v -3.424539 c 0,-0.436232 0.354042,-0.790276 0.790278,-0.790276 h 1.580555 c 0.436232,0 0.790274,0.354044 0.790274,0.790276 v 3.424539 h 2.897688 c 0.436233,0 0.790277,-0.354046 0.790277,-0.790278 v -7.112501 m -7.9027793,7.902779 h 5.7953753"
     id="path1-8-1"
     style="stroke-width:1.0537" />
</svg>
