<?xml version="1.0" encoding="UTF-8" standalone="no"?>
<!-- Created with Inkscape (http://www.inkscape.org/) -->

<svg
   version="1.1"
   id="svg1"
   width="1250.2006"
   height="956.99335"
   viewBox="0 0 1250.2006 956.9934"
   xml:space="preserve"
   xmlns="http://www.w3.org/2000/svg"
   xmlns:svg="http://www.w3.org/2000/svg"><defs
     id="defs1"><rect
       x="754.08136"
       y="40.834732"
       width="1287.6552"
       height="582.5755"
       id="rect1" /></defs><rect
     id="background"
     width="100%"
     height="100%"
     x="0"
     y="0"
     style="fill:#1c1917;fill-opacity:1" /><g
     id="g1"
     transform="translate(226.70285,-32.591635)"><path
       style="fill:#f97316;fill-opacity:1;stroke-width:0.837635"
       d="m 453.61061,607.7363 c -9.72413,-2.91365 -10.7704,-6.73396 -10.76353,-39.30136 0.008,-36.00129 3.00199,-41.0053 29.54686,-49.37661 C 561.76613,490.87353 627.87117,404.0472 639.54041,299.51811 649.61497,209.27363 605.69045,118.90818 525.56088,65.029172 508.08989,53.281709 514.97297,52.264609 537.18123,63.312053 730.20127,159.32939 752.74008,425.27652 578.8573,555.06969 535.19094,587.66404 473.37431,613.65812 453.61061,607.7363 Z M 140.17577,461.85171 c -7.17661,-2.92256 -14.65539,-19.9045 -24.51891,-55.67469 -6.88269,-24.96014 -4.83634,-28.09586 19.36193,-29.66916 145.8071,-9.47996 269.17205,-147.62285 271.71882,-304.26815 0.62037,-38.157153 1.19433,-39.648075 15.26324,-39.648075 41.82866,0 91.15318,34.808747 127.5397,90.005915 70.73697,107.30566 32.97874,256.41246 -79.30537,313.17592 -27.32368,13.81306 -36.06636,1.84162 -34.93625,-47.83855 0.69712,-30.64529 0.27492,-29.49296 13.41085,-36.60284 95.615,-51.75205 103.7594,-215.64372 14.38776,-289.528122 -19.13019,-15.815105 -21.49156,-14.915974 -17.58378,6.695323 24.80541,137.182089 -38.18282,273.331499 -157.35574,340.125279 -50.04249,28.0477 -134.88034,58.5627 -147.98225,53.22715 z M 112.25459,304.90453 c -6.9978,-4.77483 -4.25382,-25.73351 9.11293,-69.60513 C 152.89702,131.81501 241.89829,53.747247 347.95477,36.547622 380.07719,31.338194 382.47767,35.58915 371.57851,78.382369 351.00889,159.14458 309.48765,219.98802 245.72772,262.79872 205.7167,289.66355 126.5289,314.64436 112.25459,304.90453 Z"
       id="path1" /><text
       xml:space="preserve"
       transform="matrix(26.80497,0,0,26.650789,-20450.058,-454.44863)"
       id="text1"
       style="font-style:normal;font-variant:normal;font-weight:bold;font-stretch:normal;font-size:12px;font-family:'Trebuchet MS';-inkscape-font-specification:'Trebuchet MS, Bold';font-variant-ligatures:normal;font-variant-caps:normal;font-variant-numeric:normal;font-variant-east-asian:normal;text-align:start;writing-mode:lr-tb;direction:ltr;white-space:pre;shape-inside:url(#rect1);display:inline;fill:#f9f9f9;fill-opacity:1;stroke-width:2.35843"><tspan
         x="754.08203"
         y="51.722585"
         id="tspan1">agregarr</tspan></text></g></svg>
