<?xml version="1.0" encoding="UTF-8" standalone="no"?>
<!-- Created with Inkscape (http://www.inkscape.org/) -->

<svg
   version="1.1"
   id="svg1"
   width="1130.8617"
   height="260.88052"
   viewBox="0 0 1130.8617 260.88054"
   xml:space="preserve"
   xmlns="http://www.w3.org/2000/svg"
   xmlns:svg="http://www.w3.org/2000/svg"><defs
     id="defs1" /><g
     id="g1"
     transform="translate(222.57003,-465.70935)"><path
       style="fill:#f97316;fill-opacity:1;stroke-width:0.379386"
       d="m -66.271752,726.20693 c -4.404304,-1.31967 -4.87819,-3.04998 -4.875074,-17.80058 0.0039,-16.30591 1.359678,-18.57234 13.382519,-22.36392 40.478924,-12.76561 70.419572,-52.09145 75.704871,-99.43533 4.563017,-40.87401 -15.3315041,-81.8028 -51.624217,-106.20597 -7.913059,-5.32072 -4.795538,-5.78139 5.263143,-0.77773 87.423668,43.48869 97.632065,163.94288 18.8761527,222.72949 -19.7776047,14.7628 -47.7759187,26.53618 -56.7273947,23.85404 z M -208.23433,660.13211 c -3.25047,-1.3237 -6.63781,-9.01526 -11.10524,-25.21648 -3.11734,-11.30509 -2.1905,-12.72532 8.76952,-13.43791 66.03972,-4.29373 121.914827,-66.86213 123.068324,-137.81074 0.280988,-17.28236 0.540947,-17.95763 6.91311,-17.95763 18.945262,0 41.285587,15.76577 57.765956,40.76596 32.0385693,48.60144 14.9369107,116.13569 -35.919402,141.8453 -12.375588,6.25629 -16.335375,0.83412 -15.823516,-21.66729 0.315746,-13.88003 0.124517,-13.35811 6.074116,-16.57835 43.306448,-23.43981 46.995257,-97.6705 6.516574,-131.13462 -8.664545,-7.16306 -9.734069,-6.75582 -7.964138,3.03248 11.235004,62.13324 -17.293964,123.79876 -71.270404,154.05135 -22.6655,12.70352 -61.09071,26.52453 -67.0249,24.10793 z m -12.6462,-71.08536 c -3.16949,-2.16263 -1.92667,-11.65535 4.12747,-31.52592 14.28051,-46.87069 54.59144,-82.22957 102.6271,-90.01972 14.549058,-2.35948 15.636288,-0.43411 10.69978,18.94802 -9.3165,36.57925 -28.12252,64.13679 -57.001,83.52684 -18.12201,12.16775 -53.98816,23.4822 -60.45335,19.07078 z"
       id="path1" /><path
       d="m 758.36523,51.095632 q -0.19921,0.328125 -0.69726,0.539063 -0.49219,0.205078 -1.03125,0.205078 -1.01367,0 -1.59375,-0.503906 -0.58008,-0.509766 -0.58008,-1.441407 0,-1.089843 0.81445,-1.705078 0.82032,-0.615234 2.32618,-0.615234 0.25781,0 0.60937,0.08789 0,-1.107422 -1.40039,-1.107422 -0.82617,0 -1.38281,0.27539 l -0.31641,-1.136718 q 0.75586,-0.363282 1.79883,-0.363282 1.43555,0 2.10351,0.65625 0.66797,0.650391 0.66797,2.472657 v 1.341796 q 0,1.253907 0.50391,1.576172 -0.18164,0.316407 -0.4043,0.386719 -0.22265,0.07617 -0.50976,0.07617 -0.31641,0 -0.56836,-0.234375 -0.25196,-0.234375 -0.33985,-0.509766 z m -0.14062,-2.326172 q -0.375,-0.07617 -0.5625,-0.07617 -1.73438,0 -1.73438,1.136718 0,0.84375 0.97852,0.84375 1.31836,0 1.31836,-1.318359 z m 2.57226,4.564454 0.92579,-1.142579 q 0.76757,0.703125 1.71093,0.703125 0.63282,0 1.04297,-0.1875 0.41016,-0.1875 0.41016,-0.515625 0,-0.55664 -0.9082,-0.55664 -0.2461,0 -0.73243,0.05859 -0.48632,0.05859 -0.73242,0.05859 -1.51172,0 -1.51172,-1.083984 0,-0.310547 0.25196,-0.609375 0.25195,-0.298828 0.58593,-0.439453 -1.07226,-0.697266 -1.07226,-1.97461 0,-1.007812 0.73828,-1.664062 0.73828,-0.662109 1.81641,-0.662109 0.84375,0 1.4121,0.316406 l 0.57422,-0.667969 1.01368,0.919922 -0.69727,0.509766 q 0.36328,0.550781 0.36328,1.300781 0,1.072265 -0.65625,1.716797 -0.65039,0.638672 -1.64648,0.638672 -0.15821,0 -0.42188,-0.0293 l -0.24023,-0.03516 q -0.041,0 -0.31641,0.128907 -0.26953,0.123047 -0.26953,0.257812 0,0.234375 0.4043,0.234375 0.18164,0 0.60937,-0.08789 0.42774,-0.08789 0.73242,-0.08789 2.13868,0 2.13868,1.716797 0,0.949219 -0.85547,1.488281 -0.85547,0.544922 -2.0625,0.544922 -1.44141,0 -2.60743,-0.849609 z m 1.46485,-5.683594 q 0,0.55664 0.30469,0.896484 0.31054,0.333985 0.83203,0.333985 0.52148,0 0.80273,-0.328125 0.28125,-0.328125 0.28125,-0.902344 0,-0.47461 -0.30469,-0.802735 -0.29882,-0.328125 -0.77929,-0.328125 -0.50391,0 -0.82032,0.316407 -0.3164,0.316406 -0.3164,0.814453 z m 8.6543,-0.837891 q -0.39258,-0.257812 -0.86133,-0.257812 -0.50977,0 -0.90821,0.46289 -0.39257,0.462891 -0.39257,1.13086 v 3.574218 h -1.46485 v -6.27539 h 1.46485 v 0.574219 q 0.61523,-0.691407 1.63476,-0.691407 0.75,0 1.14844,0.228516 z m 7.10156,2.220703 h -4.48242 q 0.041,0.75 0.51562,1.166016 0.47461,0.416016 1.27734,0.416016 1.00196,0 1.52344,-0.521485 l 0.56836,1.119141 q -0.77344,0.626953 -2.30859,0.626953 -1.43555,0 -2.27344,-0.837891 -0.83203,-0.84375 -0.83203,-2.349609 0,-1.482422 0.91406,-2.402344 0.91992,-0.919922 2.20313,-0.919922 1.36523,0 2.1914,0.814453 0.82617,0.814454 0.82617,2.074219 0,0.269531 -0.12304,0.814453 z m -4.42969,-1.101562 h 3.08203 q -0.15234,-1.376953 -1.52344,-1.376953 -1.2539,0 -1.55859,1.376953 z m 5.25586,5.402344 0.92578,-1.142579 q 0.76758,0.703125 1.71094,0.703125 0.63281,0 1.04297,-0.1875 0.41015,-0.1875 0.41015,-0.515625 0,-0.55664 -0.9082,-0.55664 -0.24609,0 -0.73242,0.05859 -0.48633,0.05859 -0.73242,0.05859 -1.51172,0 -1.51172,-1.083984 0,-0.310547 0.25195,-0.609375 0.25195,-0.298828 0.58594,-0.439453 -1.07227,-0.697266 -1.07227,-1.97461 0,-1.007812 0.73828,-1.664062 0.73829,-0.662109 1.81641,-0.662109 0.84375,0 1.41211,0.316406 l 0.57422,-0.667969 1.01367,0.919922 -0.69727,0.509766 q 0.36329,0.550781 0.36329,1.300781 0,1.072265 -0.65625,1.716797 -0.65039,0.638672 -1.64649,0.638672 -0.1582,0 -0.42187,-0.0293 l -0.24024,-0.03516 q -0.041,0 -0.3164,0.128907 -0.26954,0.123047 -0.26954,0.257812 0,0.234375 0.4043,0.234375 0.18164,0 0.60938,-0.08789 0.42773,-0.08789 0.73242,-0.08789 2.13867,0 2.13867,1.716797 0,0.949219 -0.85547,1.488281 -0.85547,0.544922 -2.0625,0.544922 -1.4414,0 -2.60742,-0.849609 z m 1.46484,-5.683594 q 0,0.55664 0.30469,0.896484 0.31055,0.333985 0.83203,0.333985 0.52149,0 0.80274,-0.328125 0.28125,-0.328125 0.28125,-0.902344 0,-0.47461 -0.30469,-0.802735 -0.29883,-0.328125 -0.7793,-0.328125 -0.5039,0 -0.82031,0.316407 -0.31641,0.316406 -0.31641,0.814453 z m 8.51953,3.445312 q -0.19921,0.328125 -0.69726,0.539063 -0.49219,0.205078 -1.03125,0.205078 -1.01367,0 -1.59375,-0.503906 -0.58008,-0.509766 -0.58008,-1.441407 0,-1.089843 0.81445,-1.705078 0.82032,-0.615234 2.32618,-0.615234 0.25781,0 0.60937,0.08789 0,-1.107422 -1.40039,-1.107422 -0.82617,0 -1.38281,0.27539 l -0.31641,-1.136718 q 0.75586,-0.363282 1.79883,-0.363282 1.43555,0 2.10352,0.65625 0.66796,0.650391 0.66796,2.472657 v 1.341796 q 0,1.253907 0.50391,1.576172 -0.18164,0.316407 -0.4043,0.386719 -0.22265,0.07617 -0.50976,0.07617 -0.31641,0 -0.56836,-0.234375 -0.25195,-0.234375 -0.33985,-0.509766 z M 788.6875,48.76946 q -0.375,-0.07617 -0.5625,-0.07617 -1.73438,0 -1.73438,1.136718 0,0.84375 0.97852,0.84375 1.31836,0 1.31836,-1.318359 z m 6.66797,-1.957031 q -0.39258,-0.257812 -0.86133,-0.257812 -0.50977,0 -0.9082,0.46289 -0.39258,0.462891 -0.39258,1.13086 v 3.574218 h -1.46484 v -6.27539 h 1.46484 v 0.574219 q 0.61523,-0.691407 1.63476,-0.691407 0.75,0 1.14844,0.228516 z m 5.12695,0 q -0.39258,-0.257812 -0.86133,-0.257812 -0.50976,0 -0.9082,0.46289 -0.39258,0.462891 -0.39258,1.13086 v 3.574218 h -1.46484 v -6.27539 h 1.46484 v 0.574219 q 0.61524,-0.691407 1.63477,-0.691407 0.75,0 1.14844,0.228516 z"
       id="text1"
       style="font-weight:bold;font-size:12px;font-family:'Trebuchet MS';-inkscape-font-specification:'Trebuchet MS, Bold';white-space:pre;fill:#f9f9f9;stroke-width:2.35843"
       transform="matrix(16.964213,0,0,16.866634,-12681.799,-222.81074)"
       aria-label="agregarr" /></g></svg>
