<svg fill="#FFFFFF" xmlns="http://www.w3.org/2000/svg" shape-rendering="geometricPrecision" text-rendering="geometricPrecision" image-rendering="optimizeQuality" fill-rule="evenodd" clip-rule="evenodd" viewBox="0 0 512 420.16"><path fill-rule="nonzero" d="M74.32 0h363.36C478.55 0 512 33.46 512 74.32v271.53c0 40.81-33.5 74.31-74.32 74.31H74.32C33.44 420.16 0 386.69 0 345.85V74.32C0 33.41 33.41 0 74.32 0zm363.36 35.93H74.32c-21.08 0-38.39 17.31-38.39 38.39v271.53c0 21.1 17.25 38.39 38.39 38.39h363.36c21.16 0 38.39-17.24 38.39-38.39V74.32c0-21.09-17.29-38.39-38.39-38.39z M152.88 293.83L95.88 293.83L132.88 126.33L220.63 126.33L258.38 293.83L199.88 293.83L195.13 274.58L156.88 274.58L152.88 293.83ZM180.13 171.83L173.88 171.83L164.38 230.33L189.13 230.33L180.13 171.83Z M355.13 293.83L345.63 250.58L331.38 250.58L331.38 293.83L273.38 293.83L273.38 126.33L343.88 126.33Q382.63 126.33 399.38 139.21Q416.13 152.08 416.13 186.96Q416.13 221.83 397.63 236.83L397.63 236.83L414.13 293.83L355.13 293.83ZM331.13 204.83L345.38 204.83Q357.63 204.83 357.63 188.46Q357.63 172.08 343.88 172.08L343.88 172.08L331.13 172.08L331.13 204.83Z"/></svg>