<svg fill="#FFFFFF" xmlns="http://www.w3.org/2000/svg" shape-rendering="geometricPrecision" text-rendering="geometricPrecision" image-rendering="optimizeQuality" fill-rule="evenodd" clip-rule="evenodd" viewBox="0 0 512 420.16"><path fill-rule="nonzero" d="M74.32 0h363.36C478.55 0 512 33.46 512 74.32v271.53c0 40.81-33.5 74.31-74.32 74.31H74.32C33.44 420.16 0 386.69 0 345.85V74.32C0 33.41 33.41 0 74.32 0zm363.36 35.93H74.32c-21.08 0-38.39 17.31-38.39 38.39v271.53c0 21.1 17.25 38.39 38.39 38.39h363.36c21.16 0 38.39-17.24 38.39-38.39V74.32c0-21.09-17.29-38.39-38.39-38.39z M99.38 293.83L99.38 126.33L175.13 126.33Q236.38 126.33 236.38 167.83L236.38 167.83Q236.38 183.58 233 192.08Q229.63 200.58 219.13 208.08L219.13 208.08Q231.38 213.33 236 220.96Q240.63 228.58 240.63 246.33L240.63 246.33Q240.63 293.83 176.13 293.83L176.13 293.83L99.38 293.83ZM170.88 227.58L170.88 227.58L157.38 227.58L157.38 255.08L170.88 255.08Q179.63 255.08 182.63 252.21Q185.63 249.33 185.63 241.46Q185.63 233.58 182.38 230.58Q179.13 227.58 170.88 227.58ZM170.13 164.58L170.13 164.58L157.38 164.58L157.38 191.33L170.38 191.33Q177.88 191.33 180.88 188.08Q183.88 184.83 183.88 177.71Q183.88 170.58 180.63 167.58Q177.38 164.58 170.13 164.58Z M313.63 293.83L255.63 293.83L255.63 126.33L312.63 126.33L351.13 189.83L354.63 189.83L354.63 126.33L412.63 126.33L412.63 293.83L355.38 293.83L317.38 225.58L313.63 225.58L313.63 293.83Z"/></svg>