<svg fill="#FFFFFF" xmlns="http://www.w3.org/2000/svg" shape-rendering="geometricPrecision" text-rendering="geometricPrecision" image-rendering="optimizeQuality" fill-rule="evenodd" clip-rule="evenodd" viewBox="0 0 512 420.16"><path fill-rule="nonzero" d="M74.32 0h363.36C478.55 0 512 33.46 512 74.32v271.53c0 40.81-33.5 74.31-74.32 74.31H74.32C33.44 420.16 0 386.69 0 345.85V74.32C0 33.41 33.41 0 74.32 0zm363.36 35.93H74.32c-21.08 0-38.39 17.31-38.39 38.39v271.53c0 21.1 17.25 38.39 38.39 38.39h363.36c21.16 0 38.39-17.24 38.39-38.39V74.32c0-21.09-17.29-38.39-38.39-38.39z M108.88 293.71L108.88 126.21L184.63 126.21Q245.88 126.21 245.88 167.71L245.88 167.71Q245.88 183.46 242.50 191.96Q239.13 200.46 228.63 207.96L228.63 207.96Q240.88 213.21 245.50 220.83Q250.13 228.46 250.13 246.21L250.13 246.21Q250.13 293.71 185.63 293.71L185.63 293.71L108.88 293.71ZM180.38 227.46L180.38 227.46L166.88 227.46L166.88 254.96L180.38 254.96Q189.13 254.96 192.13 252.08Q195.13 249.21 195.13 241.33Q195.13 233.46 191.88 230.46Q188.63 227.46 180.38 227.46ZM179.63 164.46L179.63 164.46L166.88 164.46L166.88 191.21L179.88 191.21Q187.38 191.21 190.38 187.96Q193.38 184.71 193.38 177.58Q193.38 170.46 190.13 167.46Q186.88 164.46 179.63 164.46Z M397.63 129.46L396.13 174.46Q360.88 170.71 344.88 170.71Q328.88 170.71 326.25 171.58Q323.63 172.46 323.63 175.21Q323.63 177.96 326.63 179.46Q329.63 180.96 345.50 184.46Q361.38 187.96 371.50 191.33Q381.63 194.71 389.75 200.83Q397.88 206.96 400.50 215.83Q403.13 224.71 403.13 239.71L403.13 239.71Q403.13 270.71 386.63 283.96Q370.13 297.21 336.88 297.21L336.88 297.21Q320.88 297.21 303.25 294.96Q285.63 292.71 276.13 290.46L276.13 290.46L266.38 288.21L268.88 243.96Q307.13 249.46 331.63 249.46L331.63 249.46Q344.63 249.46 344.63 243.71L344.63 243.71Q344.63 241.21 341.63 240.08Q338.63 238.96 325.38 236.96L325.38 236.96Q290.38 231.46 277.75 219.83Q265.13 208.21 265.13 181.71L265.13 181.71Q265.13 147.96 281.38 135.46Q297.63 122.96 331.38 122.96L331.38 122.96Q355.13 122.96 387.13 127.71L387.13 127.71L397.63 129.46Z"/></svg>