<svg fill="#FFFFFF" xmlns="http://www.w3.org/2000/svg" shape-rendering="geometricPrecision" text-rendering="geometricPrecision" image-rendering="optimizeQuality" fill-rule="evenodd" clip-rule="evenodd" viewBox="0 0 512 420.16"><path fill-rule="nonzero" d="M74.32 0h363.36C478.55 0 512 33.46 512 74.32v271.53c0 40.81-33.5 74.31-74.32 74.31H74.32C33.44 420.16 0 386.69 0 345.85V74.32C0 33.41 33.41 0 74.32 0zm363.36 35.93H74.32c-21.08 0-38.39 17.31-38.39 38.39v271.53c0 21.1 17.25 38.39 38.39 38.39h363.36c21.16 0 38.39-17.24 38.39-38.39V74.32c0-21.09-17.29-38.39-38.39-38.39z M106 294.33L106 126.83L181.75 126.83Q243 126.83 243 168.33L243 168.33Q243 184.08 239.63 192.58Q236.25 201.08 225.75 208.58L225.75 208.58Q238 213.83 242.63 221.46Q247.25 229.08 247.25 246.83L247.25 246.83Q247.25 294.33 182.75 294.33L182.75 294.33L106 294.33ZM177.50 228.08L177.50 228.08L164 228.08L164 255.58L177.50 255.58Q186.25 255.58 189.25 252.71Q192.25 249.83 192.25 241.96Q192.25 234.08 189 231.08Q185.75 228.08 177.50 228.08ZM176.75 165.08L176.75 165.08L164 165.08L164 191.83L177 191.83Q184.50 191.83 187.50 188.58Q190.50 185.33 190.50 178.21Q190.50 171.08 187.25 168.08Q184 165.08 176.75 165.08Z M344.25 195.83L406 195.83L406 289.33Q360.75 296.58 339 296.58Q317.25 296.58 301.88 291.71Q286.50 286.83 277.75 275.58Q269 264.33 265.63 249.08Q262.25 233.83 262.25 210.33L262.25 210.33Q262.25 162.08 280.25 142.83Q298.25 123.58 341 123.58L341 123.58Q353.75 123.58 369.75 125.71Q385.75 127.83 395.25 129.83L395.25 129.83L404.75 132.08L404.75 175.83Q368.75 172.58 353.63 172.58Q338.50 172.58 333.88 173.96Q329.25 175.33 326.50 177.21Q323.75 179.08 322.50 184.58L322.50 184.58Q320.75 192.33 320.75 211.83Q320.75 231.33 325.25 240.21Q329.75 249.08 343.50 249.08L343.50 249.08L352 248.83L352 236.33L344.50 236.33L344.25 195.83Z"/></svg>