<svg fill="#FFFFFF" xmlns="http://www.w3.org/2000/svg" shape-rendering="geometricPrecision" text-rendering="geometricPrecision" image-rendering="optimizeQuality" fill-rule="evenodd" clip-rule="evenodd" viewBox="0 0 512 420.16"><path fill-rule="nonzero" d="M74.32 0h363.36C478.55 0 512 33.46 512 74.32v271.53c0 40.81-33.5 74.31-74.32 74.31H74.32C33.44 420.16 0 386.69 0 345.85V74.32C0 33.41 33.41 0 74.32 0zm363.36 35.93H74.32c-21.08 0-38.39 17.31-38.39 38.39v271.53c0 21.1 17.25 38.39 38.39 38.39h363.36c21.16 0 38.39-17.24 38.39-38.39V74.32c0-21.09-17.29-38.39-38.39-38.39z M229.13 246.58L229.88 290.58Q203.38 297.08 175.63 297.08Q147.88 297.08 132.88 289.21Q117.88 281.33 111.25 262.83Q104.63 244.33 104.63 209.58L104.63 209.58Q104.63 159.83 120 141.46Q135.38 123.08 178.63 123.08L178.63 123.08Q196.63 123.08 221.13 128.08L221.13 128.08L229.88 129.83L228.38 174.58Q207.88 172.08 190.50 172.08Q173.13 172.08 168.13 178.71Q163.13 185.33 163.13 206.08Q163.13 226.83 165.50 234.83Q167.88 242.83 173.13 245.46Q178.38 248.08 190.13 248.08L190.13 248.08L229.13 246.58Z M301.88 293.83L244.88 293.83L281.88 126.33L369.63 126.33L407.38 293.83L348.88 293.83L344.13 274.58L305.88 274.58L301.88 293.83ZM329.13 171.83L322.88 171.83L313.38 230.33L338.13 230.33L329.13 171.83Z"/></svg>