<svg fill="#FFFFFF" xmlns="http://www.w3.org/2000/svg" shape-rendering="geometricPrecision" text-rendering="geometricPrecision" image-rendering="optimizeQuality" fill-rule="evenodd" clip-rule="evenodd" viewBox="0 0 512 420.16"><path fill-rule="nonzero" d="M74.32 0h363.36C478.55 0 512 33.46 512 74.32v271.53c0 40.81-33.5 74.31-74.32 74.31H74.32C33.44 420.16 0 386.69 0 345.85V74.32C0 33.41 33.41 0 74.32 0zm363.36 35.93H74.32c-21.08 0-38.39 17.31-38.39 38.39v271.53c0 21.1 17.25 38.39 38.39 38.39h363.36c21.16 0 38.39-17.24 38.39-38.39V74.32c0-21.09-17.29-38.39-38.39-38.39z M241.38 246.46L242.13 290.46Q215.63 296.96 187.88 296.96Q160.13 296.96 145.13 289.08Q130.13 281.21 123.50 262.71Q116.88 244.21 116.88 209.46L116.88 209.46Q116.88 159.71 132.25 141.33Q147.63 122.96 190.88 122.96L190.88 122.96Q208.88 122.96 233.38 127.96L233.38 127.96L242.13 129.71L240.63 174.46Q220.13 171.96 202.75 171.96Q185.38 171.96 180.38 178.58Q175.38 185.21 175.38 205.96Q175.38 226.71 177.75 234.71Q180.13 242.71 185.38 245.33Q190.63 247.96 202.38 247.96L202.38 247.96L241.38 246.46Z M389.63 129.46L388.13 174.46Q352.88 170.71 336.88 170.71Q320.88 170.71 318.25 171.58Q315.63 172.46 315.63 175.21Q315.63 177.96 318.63 179.46Q321.63 180.96 337.50 184.46Q353.38 187.96 363.50 191.33Q373.63 194.71 381.75 200.83Q389.88 206.96 392.50 215.83Q395.13 224.71 395.13 239.71L395.13 239.71Q395.13 270.71 378.63 283.96Q362.13 297.21 328.88 297.21L328.88 297.21Q312.88 297.21 295.25 294.96Q277.63 292.71 268.13 290.46L268.13 290.46L258.38 288.21L260.88 243.96Q299.13 249.46 323.63 249.46L323.63 249.46Q336.63 249.46 336.63 243.71L336.63 243.71Q336.63 241.21 333.63 240.08Q330.63 238.96 317.38 236.96L317.38 236.96Q282.38 231.46 269.75 219.83Q257.13 208.21 257.13 181.71L257.13 181.71Q257.13 147.96 273.38 135.46Q289.63 122.96 323.38 122.96L323.38 122.96Q347.13 122.96 379.13 127.71L379.13 127.71L389.63 129.46Z"/></svg>