<svg fill="#FFFFFF" xmlns="http://www.w3.org/2000/svg" shape-rendering="geometricPrecision" text-rendering="geometricPrecision" image-rendering="optimizeQuality" fill-rule="evenodd" clip-rule="evenodd" viewBox="0 0 512 420.16"><path fill-rule="nonzero" d="M74.32 0h363.36C478.55 0 512 33.46 512 74.32v271.53c0 40.81-33.5 74.31-74.32 74.31H74.32C33.44 420.16 0 386.69 0 345.85V74.32C0 33.41 33.41 0 74.32 0zm363.36 35.93H74.32c-21.08 0-38.39 17.31-38.39 38.39v271.53c0 21.1 17.25 38.39 38.39 38.39h363.36c21.16 0 38.39-17.24 38.39-38.39V74.32c0-21.09-17.29-38.39-38.39-38.39z M233 246.58L233.75 290.58Q207.25 297.08 179.50 297.08Q151.75 297.08 136.75 289.21Q121.75 281.33 115.13 262.83Q108.50 244.33 108.50 209.58L108.50 209.58Q108.50 159.83 123.88 141.46Q139.25 123.08 182.50 123.08L182.50 123.08Q200.50 123.08 225 128.08L225 128.08L233.75 129.83L232.25 174.58Q211.75 172.08 194.38 172.08Q177 172.08 172 178.71Q167 185.33 167 206.08Q167 226.83 169.38 234.83Q171.75 242.83 177 245.46Q182.25 248.08 194 248.08L194 248.08L233 246.58Z M354.50 241.33L354.50 293.83L296.50 293.83L296.50 241.33L248.75 126.33L310.25 126.33L326 175.58L342.25 126.33L403.50 126.33L354.50 241.33Z"/></svg>