<svg fill="#FFFFFF" xmlns="http://www.w3.org/2000/svg" shape-rendering="geometricPrecision" text-rendering="geometricPrecision" image-rendering="optimizeQuality" fill-rule="evenodd" clip-rule="evenodd" viewBox="0 0 512 420.16"><path fill-rule="nonzero" d="M74.32 0h363.36C478.55 0 512 33.46 512 74.32v271.53c0 40.81-33.5 74.31-74.32 74.31H74.32C33.44 420.16 0 386.69 0 345.85V74.32C0 33.41 33.41 0 74.32 0zm363.36 35.93H74.32c-21.08 0-38.39 17.31-38.39 38.39v271.53c0 21.1 17.25 38.39 38.39 38.39h363.36c21.16 0 38.39-17.24 38.39-38.39V74.32c0-21.09-17.29-38.39-38.39-38.39z M164.50 293.83L164.50 293.83L91.25 293.83L91.25 126.33L162 126.33Q205.25 126.33 224.25 145.83Q243.25 165.33 243.25 208.21Q243.25 251.08 225 272.46Q206.75 293.83 164.50 293.83ZM184.75 211.08Q184.75 188.58 180.13 181.08Q175.50 173.58 159.50 173.58L159.50 173.58L149.25 173.58L149.25 246.58L159.50 246.58Q172.50 246.58 178.75 240.08L178.75 240.08Q184.75 233.58 184.75 211.08Z M315.25 293.83L258.25 293.83L295.25 126.33L383 126.33L420.75 293.83L362.25 293.83L357.50 274.58L319.25 274.58L315.25 293.83ZM342.50 171.83L336.25 171.83L326.75 230.33L351.50 230.33L342.50 171.83Z"/></svg>