<svg fill="#FFFFFF" xmlns="http://www.w3.org/2000/svg" shape-rendering="geometricPrecision" text-rendering="geometricPrecision" image-rendering="optimizeQuality" fill-rule="evenodd" clip-rule="evenodd" viewBox="0 0 512 420.16"><path fill-rule="nonzero" d="M74.32 0h363.36C478.55 0 512 33.46 512 74.32v271.53c0 40.81-33.5 74.31-74.32 74.31H74.32C33.44 420.16 0 386.69 0 345.85V74.32C0 33.41 33.41 0 74.32 0zm363.36 35.93H74.32c-21.08 0-38.39 17.31-38.39 38.39v271.53c0 21.1 17.25 38.39 38.39 38.39h363.36c21.16 0 38.39-17.24 38.39-38.39V74.32c0-21.09-17.29-38.39-38.39-38.39z M183 293.83L183 293.83L109.75 293.83L109.75 126.33L180.50 126.33Q223.75 126.33 242.75 145.83Q261.75 165.33 261.75 208.21Q261.75 251.08 243.50 272.46Q225.25 293.83 183 293.83ZM203.25 211.08Q203.25 188.58 198.63 181.08Q194 173.58 178 173.58L178 173.58L167.75 173.58L167.75 246.58L178 246.58Q191 246.58 197.25 240.08L197.25 240.08Q203.25 233.58 203.25 211.08Z M402.25 293.83L276.75 293.83L276.75 126.33L402.25 126.33L402.25 172.58L334.75 172.58L334.75 186.83L387.25 186.83L387.25 232.58L334.75 232.58L334.75 247.58L402.25 247.58L402.25 293.83Z"/></svg>