<svg fill="#FFFFFF" xmlns="http://www.w3.org/2000/svg" shape-rendering="geometricPrecision" text-rendering="geometricPrecision" image-rendering="optimizeQuality" fill-rule="evenodd" clip-rule="evenodd" viewBox="0 0 512 420.16"><path fill-rule="nonzero" d="M74.32 0h363.36C478.55 0 512 33.46 512 74.32v271.53c0 40.81-33.5 74.31-74.32 74.31H74.32C33.44 420.16 0 386.69 0 345.85V74.32C0 33.41 33.41 0 74.32 0zm363.36 35.93H74.32c-21.08 0-38.39 17.31-38.39 38.39v271.53c0 21.1 17.25 38.39 38.39 38.39h363.36c21.16 0 38.39-17.24 38.39-38.39V74.32c0-21.09-17.29-38.39-38.39-38.39z M232.75 293.83L107.25 293.83L107.25 126.33L232.75 126.33L232.75 172.58L165.25 172.58L165.25 186.83L217.75 186.83L217.75 232.58L165.25 232.58L165.25 247.58L232.75 247.58L232.75 293.83Z M305.75 293.83L247.75 293.83L247.75 126.33L304.75 126.33L343.25 189.83L346.75 189.83L346.75 126.33L404.75 126.33L404.75 293.83L347.50 293.83L309.50 225.58L305.75 225.58L305.75 293.83Z"/></svg>