<svg fill="#FFFFFF" xmlns="http://www.w3.org/2000/svg" shape-rendering="geometricPrecision" text-rendering="geometricPrecision" image-rendering="optimizeQuality" fill-rule="evenodd" clip-rule="evenodd" viewBox="0 0 512 420.16"><path fill-rule="nonzero" d="M74.32 0h363.36C478.55 0 512 33.46 512 74.32v271.53c0 40.81-33.5 74.31-74.32 74.31H74.32C33.44 420.16 0 386.69 0 345.85V74.32C0 33.41 33.41 0 74.32 0zm363.36 35.93H74.32c-21.08 0-38.39 17.31-38.39 38.39v271.53c0 21.1 17.25 38.39 38.39 38.39h363.36c21.16 0 38.39-17.24 38.39-38.39V74.32c0-21.09-17.29-38.39-38.39-38.39z M237.63 292.21L112.13 292.21L112.13 124.71L237.63 124.71L237.63 170.96L170.13 170.96L170.13 185.21L222.63 185.21L222.63 230.96L170.13 230.96L170.13 245.96L237.63 245.96L237.63 292.21Z M252.63 124.71L310.63 124.71L310.63 234.46Q310.63 241.71 314.25 244.71Q317.88 247.71 326.38 247.71Q334.88 247.71 338.38 244.71Q341.88 241.71 341.88 234.46L341.88 234.46L341.88 124.71L399.88 124.71L399.88 231.21Q399.88 266.71 382.13 281.08Q364.38 295.46 326.25 295.46Q288.13 295.46 270.38 281.46Q252.63 267.46 252.63 232.21L252.63 232.21L252.63 124.71Z"/></svg>