<svg fill="#FFFFFF" xmlns="http://www.w3.org/2000/svg" shape-rendering="geometricPrecision" text-rendering="geometricPrecision" image-rendering="optimizeQuality" fill-rule="evenodd" clip-rule="evenodd" viewBox="0 0 512 420.16"><path fill-rule="nonzero" d="M74.32 0h363.36C478.55 0 512 33.46 512 74.32v271.53c0 40.81-33.5 74.31-74.32 74.31H74.32C33.44 420.16 0 386.69 0 345.85V74.32C0 33.41 33.41 0 74.32 0zm363.36 35.93H74.32c-21.08 0-38.39 17.31-38.39 38.39v271.53c0 21.1 17.25 38.39 38.39 38.39h363.36c21.16 0 38.39-17.24 38.39-38.39V74.32c0-21.09-17.29-38.39-38.39-38.39z M174.75 293.83L116.75 293.83L116.75 126.33L237.50 126.33L237.50 173.58L174.75 173.58L174.75 200.58L222.50 200.58L222.50 247.83L174.75 247.83L174.75 293.83Z M334.25 293.83L324.75 250.58L310.50 250.58L310.50 293.83L252.50 293.83L252.50 126.33L323 126.33Q361.75 126.33 378.50 139.21Q395.25 152.08 395.25 186.96Q395.25 221.83 376.75 236.83L376.75 236.83L393.25 293.83L334.25 293.83ZM310.25 204.83L324.50 204.83Q336.75 204.83 336.75 188.46Q336.75 172.08 323 172.08L323 172.08L310.25 172.08L310.25 204.83Z"/></svg>