<svg fill="#FFFFFF" xmlns="http://www.w3.org/2000/svg" shape-rendering="geometricPrecision" text-rendering="geometricPrecision" image-rendering="optimizeQuality" fill-rule="evenodd" clip-rule="evenodd" viewBox="0 0 512 420.16"><path fill-rule="nonzero" d="M74.32 0h363.36C478.55 0 512 33.46 512 74.32v271.53c0 40.81-33.5 74.31-74.32 74.31H74.32C33.44 420.16 0 386.69 0 345.85V74.32C0 33.41 33.41 0 74.32 0zm363.36 35.93H74.32c-21.08 0-38.39 17.31-38.39 38.39v271.53c0 21.1 17.25 38.39 38.39 38.39h363.36c21.16 0 38.39-17.24 38.39-38.39V74.32c0-21.09-17.29-38.39-38.39-38.39z M177.38 195.83L239.13 195.83L239.13 289.33Q193.88 296.58 172.13 296.58Q150.38 296.58 135 291.71Q119.63 286.83 110.88 275.58Q102.13 264.33 98.75 249.08Q95.38 233.83 95.38 210.33L95.38 210.33Q95.38 162.08 113.38 142.83Q131.38 123.58 174.13 123.58L174.13 123.58Q186.88 123.58 202.88 125.71Q218.88 127.83 228.38 129.83L228.38 129.83L237.88 132.08L237.88 175.83Q201.88 172.58 186.75 172.58Q171.63 172.58 167 173.96Q162.38 175.33 159.63 177.21Q156.88 179.08 155.63 184.58L155.63 184.58Q153.88 192.33 153.88 211.83Q153.88 231.33 158.38 240.21Q162.88 249.08 176.63 249.08L176.63 249.08L185.13 248.83L185.13 236.33L177.63 236.33L177.38 195.83Z M311.13 294.33L254.13 294.33L291.13 126.83L378.88 126.83L416.63 294.33L358.13 294.33L353.38 275.08L315.13 275.08L311.13 294.33ZM338.38 172.33L332.13 172.33L322.63 230.83L347.38 230.83L338.38 172.33Z"/></svg>