<svg fill="#FFFFFF" xmlns="http://www.w3.org/2000/svg" shape-rendering="geometricPrecision" text-rendering="geometricPrecision" image-rendering="optimizeQuality" fill-rule="evenodd" clip-rule="evenodd" viewBox="0 0 512 420.16"><path fill-rule="nonzero" d="M74.32 0h363.36C478.55 0 512 33.46 512 74.32v271.53c0 40.81-33.5 74.31-74.32 74.31H74.32C33.44 420.16 0 386.69 0 345.85V74.32C0 33.41 33.41 0 74.32 0zm363.36 35.93H74.32c-21.08 0-38.39 17.31-38.39 38.39v271.53c0 21.1 17.25 38.39 38.39 38.39h363.36c21.16 0 38.39-17.24 38.39-38.39V74.32c0-21.09-17.29-38.39-38.39-38.39z M185 195.33L246.75 195.33L246.75 288.83Q201.50 296.08 179.75 296.08Q158 296.08 142.63 291.21Q127.25 286.33 118.50 275.08Q109.75 263.83 106.38 248.58Q103 233.33 103 209.83L103 209.83Q103 161.58 121 142.33Q139 123.08 181.75 123.08L181.75 123.08Q194.50 123.08 210.50 125.21Q226.50 127.33 236 129.33L236 129.33L245.50 131.58L245.50 175.33Q209.50 172.08 194.38 172.08Q179.25 172.08 174.63 173.46Q170 174.83 167.25 176.71Q164.50 178.58 163.25 184.08L163.25 184.08Q161.50 191.83 161.50 211.33Q161.50 230.83 166 239.71Q170.50 248.58 184.25 248.58L184.25 248.58L192.75 248.33L192.75 235.83L185.25 235.83L185 195.33Z M261.75 126.33L319.75 126.33L319.75 236.08Q319.75 243.33 323.38 246.33Q327 249.33 335.50 249.33Q344 249.33 347.50 246.33Q351 243.33 351 236.08L351 236.08L351 126.33L409 126.33L409 232.83Q409 268.33 391.25 282.71Q373.50 297.08 335.38 297.08Q297.25 297.08 279.50 283.08Q261.75 269.08 261.75 233.83L261.75 233.83L261.75 126.33Z"/></svg>