<svg fill="#FFFFFF" xmlns="http://www.w3.org/2000/svg" shape-rendering="geometricPrecision" text-rendering="geometricPrecision" image-rendering="optimizeQuality" fill-rule="evenodd" clip-rule="evenodd" viewBox="0 0 512 420.16"><path fill-rule="nonzero" d="M74.32 0h363.36C478.55 0 512 33.46 512 74.32v271.53c0 40.81-33.5 74.31-74.32 74.31H74.32C33.44 420.16 0 386.69 0 345.85V74.32C0 33.41 33.41 0 74.32 0zm363.36 35.93H74.32c-21.08 0-38.39 17.31-38.39 38.39v271.53c0 21.1 17.25 38.39 38.39 38.39h363.36c21.16 0 38.39-17.24 38.39-38.39V74.32c0-21.09-17.29-38.39-38.39-38.39z M260.13 293.83L202.13 293.83L202.13 235.33L169.38 235.33L169.38 293.83L111.38 293.83L111.38 126.33L169.38 126.33L169.38 188.08L202.13 188.08L202.13 126.33L260.13 126.33L260.13 293.83Z M400.63 293.83L275.13 293.83L275.13 126.33L400.63 126.33L400.63 172.58L333.13 172.58L333.13 186.83L385.63 186.83L385.63 232.58L333.13 232.58L333.13 247.58L400.63 247.58L400.63 293.83Z"/></svg>