<svg fill="#FFFFFF" xmlns="http://www.w3.org/2000/svg" shape-rendering="geometricPrecision" text-rendering="geometricPrecision" image-rendering="optimizeQuality" fill-rule="evenodd" clip-rule="evenodd" viewBox="0 0 512 420.16"><path fill-rule="nonzero" d="M74.32 0h363.36C478.55 0 512 33.46 512 74.32v271.53c0 40.81-33.5 74.31-74.32 74.31H74.32C33.44 420.16 0 386.69 0 345.85V74.32C0 33.41 33.41 0 74.32 0zm363.36 35.93H74.32c-21.08 0-38.39 17.31-38.39 38.39v271.53c0 21.1 17.25 38.39 38.39 38.39h363.36c21.16 0 38.39-17.24 38.39-38.39V74.32c0-21.09-17.29-38.39-38.39-38.39z M251.50 293.83L193.50 293.83L193.50 235.33L160.75 235.33L160.75 293.83L102.75 293.83L102.75 126.33L160.75 126.33L160.75 188.08L193.50 188.08L193.50 126.33L251.50 126.33L251.50 293.83Z M348.25 293.83L338.75 250.58L324.50 250.58L324.50 293.83L266.50 293.83L266.50 126.33L337 126.33Q375.75 126.33 392.50 139.21Q409.25 152.08 409.25 186.96Q409.25 221.83 390.75 236.83L390.75 236.83L407.25 293.83L348.25 293.83ZM324.25 204.83L338.50 204.83Q350.75 204.83 350.75 188.46Q350.75 172.08 337 172.08L337 172.08L324.25 172.08L324.25 204.83Z"/></svg>