<svg fill="#FFFFFF" xmlns="http://www.w3.org/2000/svg" shape-rendering="geometricPrecision" text-rendering="geometricPrecision" image-rendering="optimizeQuality" fill-rule="evenodd" clip-rule="evenodd" viewBox="0 0 512 420.16"><path fill-rule="nonzero" d="M74.32 0h363.36C478.55 0 512 33.46 512 74.32v271.53c0 40.81-33.5 74.31-74.32 74.31H74.32C33.44 420.16 0 386.69 0 345.85V74.32C0 33.41 33.41 0 74.32 0zm363.36 35.93H74.32c-21.08 0-38.39 17.31-38.39 38.39v271.53c0 21.1 17.25 38.39 38.39 38.39h363.36c21.16 0 38.39-17.24 38.39-38.39V74.32c0-21.09-17.29-38.39-38.39-38.39z M249.25 292.21L191.25 292.21L191.25 233.71L158.50 233.71L158.50 292.21L100.50 292.21L100.50 124.71L158.50 124.71L158.50 186.46L191.25 186.46L191.25 124.71L249.25 124.71L249.25 292.21Z M264.25 124.71L322.25 124.71L322.25 234.46Q322.25 241.71 325.88 244.71Q329.50 247.71 338 247.71Q346.50 247.71 350 244.71Q353.50 241.71 353.50 234.46L353.50 234.46L353.50 124.71L411.50 124.71L411.50 231.21Q411.50 266.71 393.75 281.08Q376 295.46 337.88 295.46Q299.75 295.46 282 281.46Q264.25 267.46 264.25 232.21L264.25 232.21L264.25 124.71Z"/></svg>