<svg fill="#FFFFFF" xmlns="http://www.w3.org/2000/svg" shape-rendering="geometricPrecision" text-rendering="geometricPrecision" image-rendering="optimizeQuality" fill-rule="evenodd" clip-rule="evenodd" viewBox="0 0 512 420.16"><path fill-rule="nonzero" d="M74.32 0h363.36C478.55 0 512 33.46 512 74.32v271.53c0 40.81-33.5 74.31-74.32 74.31H74.32C33.44 420.16 0 386.69 0 345.85V74.32C0 33.41 33.41 0 74.32 0zm363.36 35.93H74.32c-21.08 0-38.39 17.31-38.39 38.39v271.53c0 21.1 17.25 38.39 38.39 38.39h363.36c21.16 0 38.39-17.24 38.39-38.39V74.32c0-21.09-17.29-38.39-38.39-38.39z M201.50 293.83L143.50 293.83L143.50 126.33L201.50 126.33L201.50 293.83Z M289.75 293.83L289.75 293.83L216.50 293.83L216.50 126.33L287.25 126.33Q330.50 126.33 349.50 145.83Q368.50 165.33 368.50 208.21Q368.50 251.08 350.25 272.46Q332 293.83 289.75 293.83ZM310 211.08Q310 188.58 305.38 181.08Q300.75 173.58 284.75 173.58L284.75 173.58L274.50 173.58L274.50 246.58L284.75 246.58Q297.75 246.58 304 240.08L304 240.08Q310 233.58 310 211.08Z"/></svg>