<svg fill="#FFFFFF" xmlns="http://www.w3.org/2000/svg" shape-rendering="geometricPrecision" text-rendering="geometricPrecision" image-rendering="optimizeQuality" fill-rule="evenodd" clip-rule="evenodd" viewBox="0 0 512 420.16"><path fill-rule="nonzero" d="M74.32 0h363.36C478.55 0 512 33.46 512 74.32v271.53c0 40.81-33.5 74.31-74.32 74.31H74.32C33.44 420.16 0 386.69 0 345.85V74.32C0 33.41 33.41 0 74.32 0zm363.36 35.93H74.32c-21.08 0-38.39 17.31-38.39 38.39v271.53c0 21.1 17.25 38.39 38.39 38.39h363.36c21.16 0 38.39-17.24 38.39-38.39V74.32c0-21.09-17.29-38.39-38.39-38.39z M208.50 293.71L150.50 293.71L150.50 126.21L208.50 126.21L208.50 293.71Z M356 129.46L354.50 174.46Q319.25 170.71 303.25 170.71Q287.25 170.71 284.63 171.58Q282 172.46 282 175.21Q282 177.96 285 179.46Q288 180.96 303.88 184.46Q319.75 187.96 329.88 191.33Q340 194.71 348.13 200.83Q356.25 206.96 358.88 215.83Q361.50 224.71 361.50 239.71L361.50 239.71Q361.50 270.71 345 283.96Q328.50 297.21 295.25 297.21L295.25 297.21Q279.25 297.21 261.63 294.96Q244 292.71 234.50 290.46L234.50 290.46L224.75 288.21L227.25 243.96Q265.50 249.46 290 249.46L290 249.46Q303 249.46 303 243.71L303 243.71Q303 241.21 300 240.08Q297 238.96 283.75 236.96L283.75 236.96Q248.75 231.46 236.13 219.83Q223.50 208.21 223.50 181.71L223.50 181.71Q223.50 147.96 239.75 135.46Q256 122.96 289.75 122.96L289.75 122.96Q313.50 122.96 345.50 127.71L345.50 127.71L356 129.46Z"/></svg>