<svg fill="#FFFFFF" xmlns="http://www.w3.org/2000/svg" shape-rendering="geometricPrecision" text-rendering="geometricPrecision" image-rendering="optimizeQuality" fill-rule="evenodd" clip-rule="evenodd" viewBox="0 0 512 420.16"><path fill-rule="nonzero" d="M74.32 0h363.36C478.55 0 512 33.46 512 74.32v271.53c0 40.81-33.5 74.31-74.32 74.31H74.32C33.44 420.16 0 386.69 0 345.85V74.32C0 33.41 33.41 0 74.32 0zm363.36 35.93H74.32c-21.08 0-38.39 17.31-38.39 38.39v271.53c0 21.1 17.25 38.39 38.39 38.39h363.36c21.16 0 38.39-17.24 38.39-38.39V74.32c0-21.09-17.29-38.39-38.39-38.39z M144.13 124.71L202.13 124.71L202.13 247.96Q202.13 272.46 190.13 283.96L190.13 283.96Q180.88 293.21 156.63 294.71L156.63 294.71Q147.38 295.46 132.38 295.46L132.38 295.46L132.38 247.71Q135.63 247.71 137.13 247.58Q138.63 247.46 140.25 246.08Q141.88 244.71 142.38 242.96Q142.88 241.21 143.38 236.71L143.38 236.71Q144.13 229.71 144.13 211.71L144.13 211.71L144.13 124.71Z M274.13 292.21L217.13 292.21L254.13 124.71L341.88 124.71L379.63 292.21L321.13 292.21L316.38 272.96L278.13 272.96L274.13 292.21ZM301.38 170.21L295.13 170.21L285.63 228.71L310.38 228.71L301.38 170.21Z"/></svg>