<svg fill="#FFFFFF" xmlns="http://www.w3.org/2000/svg" shape-rendering="geometricPrecision" text-rendering="geometricPrecision" image-rendering="optimizeQuality" fill-rule="evenodd" clip-rule="evenodd" viewBox="0 0 512 420.16"><path fill-rule="nonzero" d="M74.32 0h363.36C478.55 0 512 33.46 512 74.32v271.53c0 40.81-33.5 74.31-74.32 74.31H74.32C33.44 420.16 0 386.69 0 345.85V74.32C0 33.41 33.41 0 74.32 0zm363.36 35.93H74.32c-21.08 0-38.39 17.31-38.39 38.39v271.53c0 21.1 17.25 38.39 38.39 38.39h363.36c21.16 0 38.39-17.24 38.39-38.39V74.32c0-21.09-17.29-38.39-38.39-38.39z M164.88 238.08L154.63 238.08L154.63 293.83L96.63 293.83L96.63 126.33L154.63 126.33L154.63 185.58L164.63 185.58L183.38 126.33L240.88 126.33L214.13 207.33L243.38 293.83L185.13 293.83L164.88 238.08Z M316.38 293.83L258.38 293.83L258.38 126.33L315.38 126.33L353.88 189.83L357.38 189.83L357.38 126.33L415.38 126.33L415.38 293.83L358.13 293.83L320.13 225.58L316.38 225.58L316.38 293.83Z"/></svg>