<svg fill="#FFFFFF" xmlns="http://www.w3.org/2000/svg" shape-rendering="geometricPrecision" text-rendering="geometricPrecision" image-rendering="optimizeQuality" fill-rule="evenodd" clip-rule="evenodd" viewBox="0 0 512 420.16"><path fill-rule="nonzero" d="M74.32 0h363.36C478.55 0 512 33.46 512 74.32v271.53c0 40.81-33.5 74.31-74.32 74.31H74.32C33.44 420.16 0 386.69 0 345.85V74.32C0 33.41 33.41 0 74.32 0zm363.36 35.93H74.32c-21.08 0-38.39 17.31-38.39 38.39v271.53c0 21.1 17.25 38.39 38.39 38.39h363.36c21.16 0 38.39-17.24 38.39-38.39V74.32c0-21.09-17.29-38.39-38.39-38.39z M162.13 238.08L151.88 238.08L151.88 293.83L93.88 293.83L93.88 126.33L151.88 126.33L151.88 185.58L161.88 185.58L180.63 126.33L238.13 126.33L211.38 207.33L240.63 293.83L182.38 293.83L162.13 238.08Z M312.63 293.83L255.63 293.83L292.63 126.33L380.38 126.33L418.13 293.83L359.63 293.83L354.88 274.58L316.63 274.58L312.63 293.83ZM339.88 171.83L333.63 171.83L324.13 230.33L348.88 230.33L339.88 171.83Z"/></svg>