<svg fill="#FFFFFF" xmlns="http://www.w3.org/2000/svg" shape-rendering="geometricPrecision" text-rendering="geometricPrecision" image-rendering="optimizeQuality" fill-rule="evenodd" clip-rule="evenodd" viewBox="0 0 512 420.16"><path fill-rule="nonzero" d="M74.32 0h363.36C478.55 0 512 33.46 512 74.32v271.53c0 40.81-33.5 74.31-74.32 74.31H74.32C33.44 420.16 0 386.69 0 345.85V74.32C0 33.41 33.41 0 74.32 0zm363.36 35.93H74.32c-21.08 0-38.39 17.31-38.39 38.39v271.53c0 21.1 17.25 38.39 38.39 38.39h363.36c21.16 0 38.39-17.24 38.39-38.39V74.32c0-21.09-17.29-38.39-38.39-38.39z M144 238.08L133.75 238.08L133.75 293.83L75.75 293.83L75.75 126.33L133.75 126.33L133.75 185.58L143.75 185.58L162.50 126.33L220 126.33L193.25 207.33L222.50 293.83L164.25 293.83L144 238.08Z M295.50 293.83L237.50 293.83L237.50 126.33L323.75 126.33L336.75 190.33L347.50 126.33L436.25 126.33L436.25 293.83L378.25 293.83L378.25 207.58L375.50 207.58L361 292.08L312.50 292.08L298.25 207.58L295.50 207.58L295.50 293.83Z"/></svg>