<svg fill="#FFFFFF" xmlns="http://www.w3.org/2000/svg" shape-rendering="geometricPrecision" text-rendering="geometricPrecision" image-rendering="optimizeQuality" fill-rule="evenodd" clip-rule="evenodd" viewBox="0 0 512 420.16"><path fill-rule="nonzero" d="M74.32 0h363.36C478.55 0 512 33.46 512 74.32v271.53c0 40.81-33.5 74.31-74.32 74.31H74.32C33.44 420.16 0 386.69 0 345.85V74.32C0 33.41 33.41 0 74.32 0zm363.36 35.93H74.32c-21.08 0-38.39 17.31-38.39 38.39v271.53c0 21.1 17.25 38.39 38.39 38.39h363.36c21.16 0 38.39-17.24 38.39-38.39V74.32c0-21.09-17.29-38.39-38.39-38.39z M163.63 238.08L153.38 238.08L153.38 293.83L95.38 293.83L95.38 126.33L153.38 126.33L153.38 185.58L163.38 185.58L182.13 126.33L239.63 126.33L212.88 207.33L242.13 293.83L183.88 293.83L163.63 238.08Z M315.63 210.08Q315.63 231.33 319.75 240.71Q323.88 250.08 337 250.08Q350.13 250.08 354.13 240.83Q358.13 231.58 358.13 209.96Q358.13 188.33 354.25 179.21Q350.38 170.08 337.13 170.08Q323.88 170.08 319.75 179.46Q315.63 188.83 315.63 210.08ZM416.63 210.08Q416.63 255.83 397.63 276.46Q378.63 297.08 337 297.08Q295.38 297.08 276.25 276.33Q257.13 255.58 257.13 209.96Q257.13 164.33 276.13 143.71Q295.13 123.08 336.88 123.08Q378.63 123.08 397.63 143.71Q416.63 164.33 416.63 210.08Z"/></svg>