<svg fill="#FFFFFF" xmlns="http://www.w3.org/2000/svg" shape-rendering="geometricPrecision" text-rendering="geometricPrecision" image-rendering="optimizeQuality" fill-rule="evenodd" clip-rule="evenodd" viewBox="0 0 512 420.16"><path fill-rule="nonzero" d="M74.32 0h363.36C478.55 0 512 33.46 512 74.32v271.53c0 40.81-33.5 74.31-74.32 74.31H74.32C33.44 420.16 0 386.69 0 345.85V74.32C0 33.41 33.41 0 74.32 0zm363.36 35.93H74.32c-21.08 0-38.39 17.31-38.39 38.39v271.53c0 21.1 17.25 38.39 38.39 38.39h363.36c21.16 0 38.39-17.24 38.39-38.39V74.32c0-21.09-17.29-38.39-38.39-38.39z M135.75 293.83L77.75 293.83L77.75 126.33L164 126.33L177 190.33L187.75 126.33L276.50 126.33L276.50 293.83L218.50 293.83L218.50 207.58L215.75 207.58L201.25 292.08L152.75 292.08L138.50 207.58L135.75 207.58L135.75 293.83Z M373.25 293.83L363.75 250.58L349.50 250.58L349.50 293.83L291.50 293.83L291.50 126.33L362 126.33Q400.75 126.33 417.50 139.21Q434.25 152.08 434.25 186.96Q434.25 221.83 415.75 236.83L415.75 236.83L432.25 293.83L373.25 293.83ZM349.25 204.83L363.50 204.83Q375.75 204.83 375.75 188.46Q375.75 172.08 362 172.08L362 172.08L349.25 172.08L349.25 204.83Z"/></svg>