<svg fill="#FFFFFF" xmlns="http://www.w3.org/2000/svg" shape-rendering="geometricPrecision" text-rendering="geometricPrecision" image-rendering="optimizeQuality" fill-rule="evenodd" clip-rule="evenodd" viewBox="0 0 512 420.16"><path fill-rule="nonzero" d="M74.32 0h363.36C478.55 0 512 33.46 512 74.32v271.53c0 40.81-33.5 74.31-74.32 74.31H74.32C33.44 420.16 0 386.69 0 345.85V74.32C0 33.41 33.41 0 74.32 0zm363.36 35.93H74.32c-21.08 0-38.39 17.31-38.39 38.39v271.53c0 21.1 17.25 38.39 38.39 38.39h363.36c21.16 0 38.39-17.24 38.39-38.39V74.32c0-21.09-17.29-38.39-38.39-38.39z M138.13 293.71L80.13 293.71L80.13 126.21L166.38 126.21L179.38 190.21L190.13 126.21L278.88 126.21L278.88 293.71L220.88 293.71L220.88 207.46L218.13 207.46L203.63 291.96L155.13 291.96L140.88 207.46L138.13 207.46L138.13 293.71Z M426.38 129.46L424.88 174.46Q389.63 170.71 373.63 170.71Q357.63 170.71 355 171.58Q352.38 172.46 352.38 175.21Q352.38 177.96 355.38 179.46Q358.38 180.96 374.25 184.46Q390.13 187.96 400.25 191.33Q410.38 194.71 418.50 200.83Q426.63 206.96 429.25 215.83Q431.88 224.71 431.88 239.71L431.88 239.71Q431.88 270.71 415.38 283.96Q398.88 297.21 365.63 297.21L365.63 297.21Q349.63 297.21 332 294.96Q314.38 292.71 304.88 290.46L304.88 290.46L295.13 288.21L297.63 243.96Q335.88 249.46 360.38 249.46L360.38 249.46Q373.38 249.46 373.38 243.71L373.38 243.71Q373.38 241.21 370.38 240.08Q367.38 238.96 354.13 236.96L354.13 236.96Q319.13 231.46 306.50 219.83Q293.88 208.21 293.88 181.71L293.88 181.71Q293.88 147.96 310.13 135.46Q326.38 122.96 360.13 122.96L360.13 122.96Q383.88 122.96 415.88 127.71L415.88 127.71L426.38 129.46Z"/></svg>