<svg fill="#FFFFFF" xmlns="http://www.w3.org/2000/svg" shape-rendering="geometricPrecision" text-rendering="geometricPrecision" image-rendering="optimizeQuality" fill-rule="evenodd" clip-rule="evenodd" viewBox="0 0 512 420.16"><path fill-rule="nonzero" d="M74.32 0h363.36C478.55 0 512 33.46 512 74.32v271.53c0 40.81-33.5 74.31-74.32 74.31H74.32C33.44 420.16 0 386.69 0 345.85V74.32C0 33.41 33.41 0 74.32 0zm363.36 35.93H74.32c-21.08 0-38.39 17.31-38.39 38.39v271.53c0 21.1 17.25 38.39 38.39 38.39h363.36c21.16 0 38.39-17.24 38.39-38.39V74.32c0-21.09-17.29-38.39-38.39-38.39z M148.25 293.83L90.25 293.83L90.25 126.33L147.25 126.33L185.75 189.83L189.25 189.83L189.25 126.33L247.25 126.33L247.25 293.83L190 293.83L152 225.58L148.25 225.58L148.25 293.83Z M320.75 210.08Q320.75 231.33 324.88 240.71Q329 250.08 342.13 250.08Q355.25 250.08 359.25 240.83Q363.25 231.58 363.25 209.96Q363.25 188.33 359.38 179.21Q355.50 170.08 342.25 170.08Q329 170.08 324.88 179.46Q320.75 188.83 320.75 210.08ZM421.75 210.08Q421.75 255.83 402.75 276.46Q383.75 297.08 342.13 297.08Q300.50 297.08 281.38 276.33Q262.25 255.58 262.25 209.96Q262.25 164.33 281.25 143.71Q300.25 123.08 342 123.08Q383.75 123.08 402.75 143.71Q421.75 164.33 421.75 210.08Z"/></svg>