<svg fill="#FFFFFF" xmlns="http://www.w3.org/2000/svg" shape-rendering="geometricPrecision" text-rendering="geometricPrecision" image-rendering="optimizeQuality" fill-rule="evenodd" clip-rule="evenodd" viewBox="0 0 512 420.16"><path fill-rule="nonzero" d="M74.32 0h363.36C478.55 0 512 33.46 512 74.32v271.53c0 40.81-33.5 74.31-74.32 74.31H74.32C33.44 420.16 0 386.69 0 345.85V74.32C0 33.41 33.41 0 74.32 0zm363.36 35.93H74.32c-21.08 0-38.39 17.31-38.39 38.39v271.53c0 21.1 17.25 38.39 38.39 38.39h363.36c21.16 0 38.39-17.24 38.39-38.39V74.32c0-21.09-17.29-38.39-38.39-38.39z M162.13 258.33L162.13 258.33L154.38 258.33L154.38 293.83L96.38 293.83L96.38 126.33L162.13 126.33Q201.88 126.33 220 140.08Q238.13 153.83 238.13 191.71Q238.13 229.58 219.88 243.96Q201.63 258.33 162.13 258.33ZM154.38 172.08L154.38 212.58L159.63 212.58Q170.38 212.58 175 207.83Q179.63 203.08 179.63 191.58Q179.63 180.08 175.25 176.08Q170.88 172.08 159.63 172.08L159.63 172.08L154.38 172.08Z M310.13 293.83L253.13 293.83L290.13 126.33L377.88 126.33L415.63 293.83L357.13 293.83L352.38 274.58L314.13 274.58L310.13 293.83ZM337.38 171.83L331.13 171.83L321.63 230.33L346.38 230.33L337.38 171.83Z"/></svg>