<svg fill="#FFFFFF" xmlns="http://www.w3.org/2000/svg" shape-rendering="geometricPrecision" text-rendering="geometricPrecision" image-rendering="optimizeQuality" fill-rule="evenodd" clip-rule="evenodd" viewBox="0 0 512 420.16"><path fill-rule="nonzero" d="M74.32 0h363.36C478.55 0 512 33.46 512 74.32v271.53c0 40.81-33.5 74.31-74.32 74.31H74.32C33.44 420.16 0 386.69 0 345.85V74.32C0 33.41 33.41 0 74.32 0zm363.36 35.93H74.32c-21.08 0-38.39 17.31-38.39 38.39v271.53c0 21.1 17.25 38.39 38.39 38.39h363.36c21.16 0 38.39-17.24 38.39-38.39V74.32c0-21.09-17.29-38.39-38.39-38.39z M187.13 258.33L187.13 258.33L179.38 258.33L179.38 293.83L121.38 293.83L121.38 126.33L187.13 126.33Q226.88 126.33 245 140.08Q263.13 153.83 263.13 191.71Q263.13 229.58 244.88 243.96Q226.63 258.33 187.13 258.33ZM179.38 172.08L179.38 212.58L184.63 212.58Q195.38 212.58 200 207.83Q204.63 203.08 204.63 191.58Q204.63 180.08 200.25 176.08Q195.88 172.08 184.63 172.08L184.63 172.08L179.38 172.08Z M390.63 246.58L390.63 293.83L278.13 293.83L278.13 126.33L336.13 126.33L336.13 246.58L390.63 246.58Z"/></svg>