<svg fill="#FFFFFF" xmlns="http://www.w3.org/2000/svg" shape-rendering="geometricPrecision" text-rendering="geometricPrecision" image-rendering="optimizeQuality" fill-rule="evenodd" clip-rule="evenodd" viewBox="0 0 512 420.16"><path fill-rule="nonzero" d="M74.32 0h363.36C478.55 0 512 33.46 512 74.32v271.53c0 40.81-33.5 74.31-74.32 74.31H74.32C33.44 420.16 0 386.69 0 345.85V74.32C0 33.41 33.41 0 74.32 0zm363.36 35.93H74.32c-21.08 0-38.39 17.31-38.39 38.39v271.53c0 21.1 17.25 38.39 38.39 38.39h363.36c21.16 0 38.39-17.24 38.39-38.39V74.32c0-21.09-17.29-38.39-38.39-38.39z M180.88 258.33L180.88 258.33L173.13 258.33L173.13 293.83L115.13 293.83L115.13 126.33L180.88 126.33Q220.63 126.33 238.75 140.08Q256.88 153.83 256.88 191.71Q256.88 229.58 238.63 243.96Q220.38 258.33 180.88 258.33ZM173.13 172.08L173.13 212.58L178.38 212.58Q189.13 212.58 193.75 207.83Q198.38 203.08 198.38 191.58Q198.38 180.08 194 176.08Q189.63 172.08 178.38 172.08L178.38 172.08L173.13 172.08Z M306.38 173.58L271.88 173.58L271.88 126.33L396.88 126.33L396.88 173.58L364.38 173.58L364.38 293.83L306.38 293.83L306.38 173.58Z"/></svg>