<svg fill="#FFFFFF" xmlns="http://www.w3.org/2000/svg" shape-rendering="geometricPrecision" text-rendering="geometricPrecision" image-rendering="optimizeQuality" fill-rule="evenodd" clip-rule="evenodd" viewBox="0 0 512 420.16"><path fill-rule="nonzero" d="M74.32 0h363.36C478.55 0 512 33.46 512 74.32v271.53c0 40.81-33.5 74.31-74.32 74.31H74.32C33.44 420.16 0 386.69 0 345.85V74.32C0 33.41 33.41 0 74.32 0zm363.36 35.93H74.32c-21.08 0-38.39 17.31-38.39 38.39v271.53c0 21.1 17.25 38.39 38.39 38.39h363.36c21.16 0 38.39-17.24 38.39-38.39V74.32c0-21.09-17.29-38.39-38.39-38.39z M179.13 293.83L169.63 250.58L155.38 250.58L155.38 293.83L97.38 293.83L97.38 126.33L167.88 126.33Q206.63 126.33 223.38 139.21Q240.13 152.08 240.13 186.96Q240.13 221.83 221.63 236.83L221.63 236.83L238.13 293.83L179.13 293.83ZM155.13 204.83L169.38 204.83Q181.63 204.83 181.63 188.46Q181.63 172.08 167.88 172.08L167.88 172.08L155.13 172.08L155.13 204.83Z M313.63 210.08Q313.63 231.33 317.75 240.71Q321.88 250.08 335 250.08Q348.13 250.08 352.13 240.83Q356.13 231.58 356.13 209.96Q356.13 188.33 352.25 179.21Q348.38 170.08 335.13 170.08Q321.88 170.08 317.75 179.46Q313.63 188.83 313.63 210.08ZM414.63 210.08Q414.63 255.83 395.63 276.46Q376.63 297.08 335 297.08Q293.38 297.08 274.25 276.33Q255.13 255.58 255.13 209.96Q255.13 164.33 274.13 143.71Q293.13 123.08 334.88 123.08Q376.63 123.08 395.63 143.71Q414.63 164.33 414.63 210.08Z"/></svg>