<svg fill="#FFFFFF" xmlns="http://www.w3.org/2000/svg" shape-rendering="geometricPrecision" text-rendering="geometricPrecision" image-rendering="optimizeQuality" fill-rule="evenodd" clip-rule="evenodd" viewBox="0 0 512 420.16"><path fill-rule="nonzero" d="M74.32 0h363.36C478.55 0 512 33.46 512 74.32v271.53c0 40.81-33.5 74.31-74.32 74.31H74.32C33.44 420.16 0 386.69 0 345.85V74.32C0 33.41 33.41 0 74.32 0zm363.36 35.93H74.32c-21.08 0-38.39 17.31-38.39 38.39v271.53c0 21.1 17.25 38.39 38.39 38.39h363.36c21.16 0 38.39-17.24 38.39-38.39V74.32c0-21.09-17.29-38.39-38.39-38.39z M185.25 292.21L175.75 248.96L161.50 248.96L161.50 292.21L103.50 292.21L103.50 124.71L174 124.71Q212.75 124.71 229.50 137.58Q246.25 150.46 246.25 185.33Q246.25 220.21 227.75 235.21L227.75 235.21L244.25 292.21L185.25 292.21ZM161.25 203.21L175.50 203.21Q187.75 203.21 187.75 186.83Q187.75 170.46 174 170.46L174 170.46L161.25 170.46L161.25 203.21Z M261.25 124.71L319.25 124.71L319.25 234.46Q319.25 241.71 322.88 244.71Q326.50 247.71 335 247.71Q343.50 247.71 347 244.71Q350.50 241.71 350.50 234.46L350.50 234.46L350.50 124.71L408.50 124.71L408.50 231.21Q408.50 266.71 390.75 281.08Q373 295.46 334.88 295.46Q296.75 295.46 279 281.46Q261.25 267.46 261.25 232.21L261.25 232.21L261.25 124.71Z"/></svg>