<svg fill="#FFFFFF" xmlns="http://www.w3.org/2000/svg" shape-rendering="geometricPrecision" text-rendering="geometricPrecision" image-rendering="optimizeQuality" fill-rule="evenodd" clip-rule="evenodd" viewBox="0 0 512 420.16"><path fill-rule="nonzero" d="M74.32 0h363.36C478.55 0 512 33.46 512 74.32v271.53c0 40.81-33.5 74.31-74.32 74.31H74.32C33.44 420.16 0 386.69 0 345.85V74.32C0 33.41 33.41 0 74.32 0zm363.36 35.93H74.32c-21.08 0-38.39 17.31-38.39 38.39v271.53c0 21.1 17.25 38.39 38.39 38.39h363.36c21.16 0 38.39-17.24 38.39-38.39V74.32c0-21.09-17.29-38.39-38.39-38.39z M238.63 129.46L237.13 174.46Q201.88 170.71 185.88 170.71Q169.88 170.71 167.25 171.58Q164.63 172.46 164.63 175.21Q164.63 177.96 167.63 179.46Q170.63 180.96 186.50 184.46Q202.38 187.96 212.50 191.33Q222.63 194.71 230.75 200.83Q238.88 206.96 241.50 215.83Q244.13 224.71 244.13 239.71L244.13 239.71Q244.13 270.71 227.63 283.96Q211.13 297.21 177.88 297.21L177.88 297.21Q161.88 297.21 144.25 294.96Q126.63 292.71 117.13 290.46L117.13 290.46L107.38 288.21L109.88 243.96Q148.13 249.46 172.63 249.46L172.63 249.46Q185.63 249.46 185.63 243.71L185.63 243.71Q185.63 241.21 182.63 240.08Q179.63 238.96 166.38 236.96L166.38 236.96Q131.38 231.46 118.75 219.83Q106.13 208.21 106.13 181.71L106.13 181.71Q106.13 147.96 122.38 135.46Q138.63 122.96 172.38 122.96L172.38 122.96Q196.13 122.96 228.13 127.71L228.13 127.71L238.63 129.46Z M327.38 237.96L317.13 237.96L317.13 293.71L259.13 293.71L259.13 126.21L317.13 126.21L317.13 185.46L327.13 185.46L345.88 126.21L403.38 126.21L376.63 207.21L405.88 293.71L347.63 293.71L327.38 237.96Z"/></svg>