<svg fill="#FFFFFF" xmlns="http://www.w3.org/2000/svg" shape-rendering="geometricPrecision" text-rendering="geometricPrecision" image-rendering="optimizeQuality" fill-rule="evenodd" clip-rule="evenodd" viewBox="0 0 512 420.16"><path fill-rule="nonzero" d="M74.32 0h363.36C478.55 0 512 33.46 512 74.32v271.53c0 40.81-33.5 74.31-74.32 74.31H74.32C33.44 420.16 0 386.69 0 345.85V74.32C0 33.41 33.41 0 74.32 0zm363.36 35.93H74.32c-21.08 0-38.39 17.31-38.39 38.39v271.53c0 21.1 17.25 38.39 38.39 38.39h363.36c21.16 0 38.39-17.24 38.39-38.39V74.32c0-21.09-17.29-38.39-38.39-38.39z M255.75 129.46L254.25 174.46Q219 170.71 203 170.71Q187 170.71 184.38 171.58Q181.75 172.46 181.75 175.21Q181.75 177.96 184.75 179.46Q187.75 180.96 203.63 184.46Q219.50 187.96 229.63 191.33Q239.75 194.71 247.88 200.83Q256 206.96 258.63 215.83Q261.25 224.71 261.25 239.71L261.25 239.71Q261.25 270.71 244.75 283.96Q228.25 297.21 195 297.21L195 297.21Q179 297.21 161.38 294.96Q143.75 292.71 134.25 290.46L134.25 290.46L124.50 288.21L127 243.96Q165.25 249.46 189.75 249.46L189.75 249.46Q202.75 249.46 202.75 243.71L202.75 243.71Q202.75 241.21 199.75 240.08Q196.75 238.96 183.50 236.96L183.50 236.96Q148.50 231.46 135.88 219.83Q123.25 208.21 123.25 181.71L123.25 181.71Q123.25 147.96 139.50 135.46Q155.75 122.96 189.50 122.96L189.50 122.96Q213.25 122.96 245.25 127.71L245.25 127.71L255.75 129.46Z M388.75 246.46L388.75 293.71L276.25 293.71L276.25 126.21L334.25 126.21L334.25 246.46L388.75 246.46Z"/></svg>