<svg fill="#FFFFFF" xmlns="http://www.w3.org/2000/svg" shape-rendering="geometricPrecision" text-rendering="geometricPrecision" image-rendering="optimizeQuality" fill-rule="evenodd" clip-rule="evenodd" viewBox="0 0 512 420.16"><path fill-rule="nonzero" d="M74.32 0h363.36C478.55 0 512 33.46 512 74.32v271.53c0 40.81-33.5 74.31-74.32 74.31H74.32C33.44 420.16 0 386.69 0 345.85V74.32C0 33.41 33.41 0 74.32 0zm363.36 35.93H74.32c-21.08 0-38.39 17.31-38.39 38.39v271.53c0 21.1 17.25 38.39 38.39 38.39h363.36c21.16 0 38.39-17.24 38.39-38.39V74.32c0-21.09-17.29-38.39-38.39-38.39z M242.25 293.71L116.75 293.71L116.75 126.21L242.25 126.21L242.25 172.46L174.75 172.46L174.75 186.71L227.25 186.71L227.25 232.46L174.75 232.46L174.75 247.46L242.25 247.46L242.25 293.71Z M389.75 129.46L388.25 174.46Q353 170.71 337 170.71Q321 170.71 318.38 171.58Q315.75 172.46 315.75 175.21Q315.75 177.96 318.75 179.46Q321.75 180.96 337.63 184.46Q353.50 187.96 363.63 191.33Q373.75 194.71 381.88 200.83Q390 206.96 392.63 215.83Q395.25 224.71 395.25 239.71L395.25 239.71Q395.25 270.71 378.75 283.96Q362.25 297.21 329 297.21L329 297.21Q313 297.21 295.38 294.96Q277.75 292.71 268.25 290.46L268.25 290.46L258.50 288.21L261 243.96Q299.25 249.46 323.75 249.46L323.75 249.46Q336.75 249.46 336.75 243.71L336.75 243.71Q336.75 241.21 333.75 240.08Q330.75 238.96 317.50 236.96L317.50 236.96Q282.50 231.46 269.88 219.83Q257.25 208.21 257.25 181.71L257.25 181.71Q257.25 147.96 273.50 135.46Q289.75 122.96 323.50 122.96L323.50 122.96Q347.25 122.96 379.25 127.71L379.25 127.71L389.75 129.46Z"/></svg>