<svg fill="#FFFFFF" xmlns="http://www.w3.org/2000/svg" shape-rendering="geometricPrecision" text-rendering="geometricPrecision" image-rendering="optimizeQuality" fill-rule="evenodd" clip-rule="evenodd" viewBox="0 0 512 420.16"><path fill-rule="nonzero" d="M74.32 0h363.36C478.55 0 512 33.46 512 74.32v271.53c0 40.81-33.5 74.31-74.32 74.31H74.32C33.44 420.16 0 386.69 0 345.85V74.32C0 33.41 33.41 0 74.32 0zm363.36 35.93H74.32c-21.08 0-38.39 17.31-38.39 38.39v271.53c0 21.1 17.25 38.39 38.39 38.39h363.36c21.16 0 38.39-17.24 38.39-38.39V74.32c0-21.09-17.29-38.39-38.39-38.39z M232.63 111.46L231.13 156.46Q195.88 152.71 179.88 152.71Q163.88 152.71 161.25 153.58Q158.63 154.46 158.63 157.21Q158.63 159.96 161.63 161.46Q164.63 162.96 180.50 166.46Q196.38 169.96 206.50 173.33Q216.63 176.71 224.75 182.83Q232.88 188.96 235.50 197.83Q238.13 206.71 238.13 221.71L238.13 221.71Q238.13 252.71 221.63 265.96Q205.13 279.21 171.88 279.21L171.88 279.21Q155.88 279.21 138.25 276.96Q120.63 274.71 111.13 272.46L111.13 272.46L101.38 270.21L103.88 225.96Q142.13 231.46 166.63 231.46L166.63 231.46Q179.63 231.46 179.63 225.71L179.63 225.71Q179.63 223.21 176.63 222.08Q173.63 220.96 160.38 218.96L160.38 218.96Q125.38 213.46 112.75 201.83Q100.13 190.21 100.13 163.71L100.13 163.71Q100.13 129.96 116.38 117.46Q132.63 104.96 166.38 104.96L166.38 104.96Q190.13 104.96 222.13 109.71L222.13 109.71L232.63 111.46Z M332.13 278.96L332.13 278.96Q290.38 278.96 271.75 258.58Q253.13 238.21 253.13 191.96Q253.13 145.71 271.50 125.33Q289.88 104.96 332.13 104.96Q374.38 104.96 393.13 125.33Q411.88 145.71 411.88 194.71Q411.88 243.71 387.88 263.71L387.88 263.71L407.88 293.46L363.88 315.21L339.38 278.71Q337.13 278.96 332.13 278.96ZM310.13 191.96Q310.13 212.71 314.75 222.33Q319.38 231.96 332.25 231.96Q345.13 231.96 349.25 222.46Q353.38 212.96 353.38 191.83Q353.38 170.71 349.25 161.33Q345.13 151.96 332.25 151.96Q319.38 151.96 314.75 161.58Q310.13 171.21 310.13 191.96Z"/></svg>