<svg fill="#FFFFFF" xmlns="http://www.w3.org/2000/svg" shape-rendering="geometricPrecision" text-rendering="geometricPrecision" image-rendering="optimizeQuality" fill-rule="evenodd" clip-rule="evenodd" viewBox="0 0 512 420.16"><path fill-rule="nonzero" d="M74.32 0h363.36C478.55 0 512 33.46 512 74.32v271.53c0 40.81-33.5 74.31-74.32 74.31H74.32C33.44 420.16 0 386.69 0 345.85V74.32C0 33.41 33.41 0 74.32 0zm363.36 35.93H74.32c-21.08 0-38.39 17.31-38.39 38.39v271.53c0 21.1 17.25 38.39 38.39 38.39h363.36c21.16 0 38.39-17.24 38.39-38.39V74.32c0-21.09-17.29-38.39-38.39-38.39z M240.63 129.46L239.13 174.46Q203.88 170.71 187.88 170.71Q171.88 170.71 169.25 171.58Q166.63 172.46 166.63 175.21Q166.63 177.96 169.63 179.46Q172.63 180.96 188.50 184.46Q204.38 187.96 214.50 191.33Q224.63 194.71 232.75 200.83Q240.88 206.96 243.50 215.83Q246.13 224.71 246.13 239.71L246.13 239.71Q246.13 270.71 229.63 283.96Q213.13 297.21 179.88 297.21L179.88 297.21Q163.88 297.21 146.25 294.96Q128.63 292.71 119.13 290.46L119.13 290.46L109.38 288.21L111.88 243.96Q150.13 249.46 174.63 249.46L174.63 249.46Q187.63 249.46 187.63 243.71L187.63 243.71Q187.63 241.21 184.63 240.08Q181.63 238.96 168.38 236.96L168.38 236.96Q133.38 231.46 120.75 219.83Q108.13 208.21 108.13 181.71L108.13 181.71Q108.13 147.96 124.38 135.46Q140.63 122.96 174.38 122.96L174.38 122.96Q198.13 122.96 230.13 127.71L230.13 127.71L240.63 129.46Z M342.88 293.71L333.38 250.46L319.13 250.46L319.13 293.71L261.13 293.71L261.13 126.21L331.63 126.21Q370.38 126.21 387.13 139.08Q403.88 151.96 403.88 186.83Q403.88 221.71 385.38 236.71L385.38 236.71L401.88 293.71L342.88 293.71ZM318.88 204.71L333.13 204.71Q345.38 204.71 345.38 188.33Q345.38 171.96 331.63 171.96L331.63 171.96L318.88 171.96L318.88 204.71Z"/></svg>