<svg fill="#FFFFFF" xmlns="http://www.w3.org/2000/svg" shape-rendering="geometricPrecision" text-rendering="geometricPrecision" image-rendering="optimizeQuality" fill-rule="evenodd" clip-rule="evenodd" viewBox="0 0 512 420.16"><path fill-rule="nonzero" d="M74.32 0h363.36C478.55 0 512 33.46 512 74.32v271.53c0 40.81-33.5 74.31-74.32 74.31H74.32C33.44 420.16 0 386.69 0 345.85V74.32C0 33.41 33.41 0 74.32 0zm363.36 35.93H74.32c-21.08 0-38.39 17.31-38.39 38.39v271.53c0 21.1 17.25 38.39 38.39 38.39h363.36c21.16 0 38.39-17.24 38.39-38.39V74.32c0-21.09-17.29-38.39-38.39-38.39z M199.50 129.46L198 174.46Q162.75 170.71 146.75 170.71Q130.75 170.71 128.13 171.58Q125.50 172.46 125.50 175.21Q125.50 177.96 128.50 179.46Q131.50 180.96 147.38 184.46Q163.25 187.96 173.38 191.33Q183.50 194.71 191.63 200.83Q199.75 206.96 202.38 215.83Q205 224.71 205 239.71L205 239.71Q205 270.71 188.50 283.96Q172 297.21 138.75 297.21L138.75 297.21Q122.75 297.21 105.13 294.96Q87.50 292.71 78 290.46L78 290.46L68.25 288.21L70.75 243.96Q109 249.46 133.50 249.46L133.50 249.46Q146.50 249.46 146.50 243.71L146.50 243.71Q146.50 241.21 143.50 240.08Q140.50 238.96 127.25 236.96L127.25 236.96Q92.25 231.46 79.63 219.83Q67 208.21 67 181.71L67 181.71Q67 147.96 83.25 135.46Q99.50 122.96 133.25 122.96L133.25 122.96Q157 122.96 189 127.71L189 127.71L199.50 129.46Z M322.50 293.71L239.75 293.71L220 126.21L277.75 126.21L285.75 235.21L290.25 235.21L301.50 128.71L364.75 128.71L377.25 235.21L381.75 235.21L386.75 126.21L445 126.21L426.50 293.71L341.75 293.71L333.50 190.71L331 190.46L322.50 293.71Z"/></svg>