<svg fill="#FFFFFF" xmlns="http://www.w3.org/2000/svg" shape-rendering="geometricPrecision" text-rendering="geometricPrecision" image-rendering="optimizeQuality" fill-rule="evenodd" clip-rule="evenodd" viewBox="0 0 512 420.16"><path fill-rule="nonzero" d="M74.32 0h363.36C478.55 0 512 33.46 512 74.32v271.53c0 40.81-33.5 74.31-74.32 74.31H74.32C33.44 420.16 0 386.69 0 345.85V74.32C0 33.41 33.41 0 74.32 0zm363.36 35.93H74.32c-21.08 0-38.39 17.31-38.39 38.39v271.53c0 21.1 17.25 38.39 38.39 38.39h363.36c21.16 0 38.39-17.24 38.39-38.39V74.32c0-21.09-17.29-38.39-38.39-38.39z M235.88 129.46L234.38 174.46Q199.13 170.71 183.13 170.71Q167.13 170.71 164.50 171.58Q161.88 172.46 161.88 175.21Q161.88 177.96 164.88 179.46Q167.88 180.96 183.75 184.46Q199.63 187.96 209.75 191.33Q219.88 194.71 228 200.83Q236.13 206.96 238.75 215.83Q241.38 224.71 241.38 239.71L241.38 239.71Q241.38 270.71 224.88 283.96Q208.38 297.21 175.13 297.21L175.13 297.21Q159.13 297.21 141.50 294.96Q123.88 292.71 114.38 290.46L114.38 290.46L104.63 288.21L107.13 243.96Q145.38 249.46 169.88 249.46L169.88 249.46Q182.88 249.46 182.88 243.71L182.88 243.71Q182.88 241.21 179.88 240.08Q176.88 238.96 163.63 236.96L163.63 236.96Q128.63 231.46 116 219.83Q103.38 208.21 103.38 181.71L103.38 181.71Q103.38 147.96 119.63 135.46Q135.88 122.96 169.63 122.96L169.63 122.96Q193.38 122.96 225.38 127.71L225.38 127.71L235.88 129.46Z M347.13 126.21L408.63 126.21L375.88 293.71L290.38 293.71L256.38 126.21L317.88 126.21L330.88 235.21L335.38 235.21L347.13 126.21Z"/></svg>