<svg fill="#FFFFFF" xmlns="http://www.w3.org/2000/svg" shape-rendering="geometricPrecision" text-rendering="geometricPrecision" image-rendering="optimizeQuality" fill-rule="evenodd" clip-rule="evenodd" viewBox="0 0 512 420.16"><path fill-rule="nonzero" d="M74.32 0h363.36C478.55 0 512 33.46 512 74.32v271.53c0 40.81-33.5 74.31-74.32 74.31H74.32C33.44 420.16 0 386.69 0 345.85V74.32C0 33.41 33.41 0 74.32 0zm363.36 35.93H74.32c-21.08 0-38.39 17.31-38.39 38.39v271.53c0 21.1 17.25 38.39 38.39 38.39h363.36c21.16 0 38.39-17.24 38.39-38.39V74.32c0-21.09-17.29-38.39-38.39-38.39z M149.13 173.58L114.63 173.58L114.63 126.33L239.63 126.33L239.63 173.58L207.13 173.58L207.13 293.83L149.13 293.83L149.13 173.58Z M336.38 293.83L326.88 250.58L312.63 250.58L312.63 293.83L254.63 293.83L254.63 126.33L325.13 126.33Q363.88 126.33 380.63 139.21Q397.38 152.08 397.38 186.96Q397.38 221.83 378.88 236.83L378.88 236.83L395.38 293.83L336.38 293.83ZM312.38 204.83L326.63 204.83Q338.88 204.83 338.88 188.46Q338.88 172.08 325.13 172.08L325.13 172.08L312.38 172.08L312.38 204.83Z"/></svg>