<svg fill="#FFFFFF" xmlns="http://www.w3.org/2000/svg" shape-rendering="geometricPrecision" text-rendering="geometricPrecision" image-rendering="optimizeQuality" fill-rule="evenodd" clip-rule="evenodd" viewBox="0 0 512 420.16"><path fill-rule="nonzero" d="M74.32 0h363.36C478.55 0 512 33.46 512 74.32v271.53c0 40.81-33.5 74.31-74.32 74.31H74.32C33.44 420.16 0 386.69 0 345.85V74.32C0 33.41 33.41 0 74.32 0zm363.36 35.93H74.32c-21.08 0-38.39 17.31-38.39 38.39v271.53c0 21.1 17.25 38.39 38.39 38.39h363.36c21.16 0 38.39-17.24 38.39-38.39V74.32c0-21.09-17.29-38.39-38.39-38.39z M101.50 124.71L159.50 124.71L159.50 234.46Q159.50 241.71 163.13 244.71Q166.75 247.71 175.25 247.71Q183.75 247.71 187.25 244.71Q190.75 241.71 190.75 234.46L190.75 234.46L190.75 124.71L248.75 124.71L248.75 231.21Q248.75 266.71 231 281.08Q213.25 295.46 175.13 295.46Q137 295.46 119.25 281.46Q101.50 267.46 101.50 232.21L101.50 232.21L101.50 124.71Z M332 236.46L321.75 236.46L321.75 292.21L263.75 292.21L263.75 124.71L321.75 124.71L321.75 183.96L331.75 183.96L350.50 124.71L408 124.71L381.25 205.71L410.50 292.21L352.25 292.21L332 236.46Z"/></svg>