<svg fill="#FFFFFF" xmlns="http://www.w3.org/2000/svg" shape-rendering="geometricPrecision" text-rendering="geometricPrecision" image-rendering="optimizeQuality" fill-rule="evenodd" clip-rule="evenodd" viewBox="0 0 512 420.16"><path fill-rule="nonzero" d="M74.32 0h363.36C478.55 0 512 33.46 512 74.32v271.53c0 40.81-33.5 74.31-74.32 74.31H74.32C33.44 420.16 0 386.69 0 345.85V74.32C0 33.41 33.41 0 74.32 0zm363.36 35.93H74.32c-21.08 0-38.39 17.31-38.39 38.39v271.53c0 21.1 17.25 38.39 38.39 38.39h363.36c21.16 0 38.39-17.24 38.39-38.39V74.32c0-21.09-17.29-38.39-38.39-38.39z M103.50 124.71L161.50 124.71L161.50 234.46Q161.50 241.71 165.13 244.71Q168.75 247.71 177.25 247.71Q185.75 247.71 189.25 244.71Q192.75 241.71 192.75 234.46L192.75 234.46L192.75 124.71L250.75 124.71L250.75 231.21Q250.75 266.71 233 281.08Q215.25 295.46 177.13 295.46Q139 295.46 121.25 281.46Q103.50 267.46 103.50 232.21L103.50 232.21L103.50 124.71Z M347.50 292.21L338 248.96L323.75 248.96L323.75 292.21L265.75 292.21L265.75 124.71L336.25 124.71Q375 124.71 391.75 137.58Q408.50 150.46 408.50 185.33Q408.50 220.21 390 235.21L390 235.21L406.50 292.21L347.50 292.21ZM323.50 203.21L337.75 203.21Q350 203.21 350 186.83Q350 170.46 336.25 170.46L336.25 170.46L323.50 170.46L323.50 203.21Z"/></svg>