<svg fill="#FFFFFF" xmlns="http://www.w3.org/2000/svg" shape-rendering="geometricPrecision" text-rendering="geometricPrecision" image-rendering="optimizeQuality" fill-rule="evenodd" clip-rule="evenodd" viewBox="0 0 512 420.16"><path fill-rule="nonzero" d="M74.32 0h363.36C478.55 0 512 33.46 512 74.32v271.53c0 40.81-33.5 74.31-74.32 74.31H74.32C33.44 420.16 0 386.69 0 345.85V74.32C0 33.41 33.41 0 74.32 0zm363.36 35.93H74.32c-21.08 0-38.39 17.31-38.39 38.39v271.53c0 21.1 17.25 38.39 38.39 38.39h363.36c21.16 0 38.39-17.24 38.39-38.39V74.32c0-21.09-17.29-38.39-38.39-38.39z M163.38 173.58L107.88 173.58L107.88 126.33L240.38 126.33L240.38 173.58L186.13 242.33L186.13 246.58L240.38 246.58L240.38 293.83L107.88 293.83L107.88 248.83L163.38 177.83L163.38 173.58Z M404.13 293.83L346.13 293.83L346.13 235.33L313.38 235.33L313.38 293.83L255.38 293.83L255.38 126.33L313.38 126.33L313.38 188.08L346.13 188.08L346.13 126.33L404.13 126.33L404.13 293.83Z"/></svg>