<?xml version="1.0" encoding="UTF-8" standalone="no"?>
<svg
   width="68.367821mm"
   height="68.433411mm"
   viewBox="0 0 68.367821 68.433411"
   version="1.1"
   id="svg1"
   xmlns="http://www.w3.org/2000/svg">
  <defs id="defs1" />
  <g id="layer1" transform="translate(-57.140958,-102.17526)">
    <!-- Blue background -->
    <path
       style="fill:#4283c9;stroke:none"
       d="m 62.768737,102.6952 c -6.384234,1.47578 -5.291666,8.60535 -5.291666,13.5716 v 36.3361 c 0,4.26153 -1.32525,11.18172 1.287257,14.81123 3.093081,4.29716 10.340598,2.82766 14.940519,2.82766 h 31.750003 c 4.54932,0 10.43527,0.98789 14.81666,-0.27846 6.14941,-1.77737 4.93889,-8.89252 4.93889,-13.83265 V 119.4418 c 0,-4.2158 1.307,-10.97524 -1.54994,-14.44865 -3.28602,-3.99508 -10.78848,-2.48469 -15.38339,-2.48469 H 77.585402 c -4.651897,0 -10.280277,-0.86189 -14.816665,0.18674 Z"
       id="background" />
    <!-- White M -->
    <path
       style="fill:#ffffff;stroke:none"
       d="m 89.932623,139.54513 -11.288888,-10.23056 v 23.63611 h -7.408332 v -33.16111 l 6.702777,0.21287 7.76111,6.83752 4.02047,4.23877 0.212863,8.4664 m 21.519447,-19.75556 v 33.16111 h -7.40833 v -23.63611 l -11.288895,10.23056 0.198982,-8.40161 4.034351,-4.29812 7.761112,-6.84296 z"
       id="letter-m" />
  </g>
</svg>